<svg width="587" height="587" viewBox="0 0 587 587" fill="none" xmlns="http://www.w3.org/2000/svg">
<path d="M527.818 470.23C520.929 479.373 513.508 488.095 505.611 496.358C495.296 507.15 484.156 517.154 472.283 526.279C471.055 527.232 469.809 528.166 468.582 529.082C467.464 529.907 466.365 530.731 465.247 531.537C462.682 533.388 460.08 535.202 457.441 536.979C453.41 539.691 449.325 542.329 445.147 544.84C433.732 551.747 421.804 557.904 409.4 563.235C400.165 567.193 390.674 570.711 380.981 573.734C380.725 573.808 380.468 573.881 380.23 573.972C376.346 575.163 372.443 576.281 368.485 577.326C367.588 577.564 366.708 577.784 365.81 578.003C365.517 578.077 365.206 578.15 364.913 578.223C361.45 579.084 357.968 579.891 354.45 580.624C341.075 583.464 327.333 585.387 313.279 586.322C310.861 586.487 308.424 586.633 306.024 586.707C305.309 586.762 304.613 586.78 303.898 586.798C296.807 587.055 289.772 587.055 282.791 586.817C275.645 586.56 268.572 586.047 261.573 585.277C257.835 584.893 254.134 584.416 250.433 583.867C238.872 582.181 227.53 579.781 216.426 576.758C198.69 571.939 181.577 565.489 165.288 557.537C163.822 556.841 162.375 556.108 160.927 555.375C160.085 554.954 159.242 554.514 158.399 554.074C157.043 553.378 155.687 552.663 154.35 551.93C154.313 551.912 154.295 551.912 154.276 551.875C152.92 551.161 151.565 550.41 150.209 549.658C140.754 544.363 131.611 538.555 122.835 532.27C122.138 531.776 121.442 531.281 120.746 530.768C116.33 527.543 112.006 524.208 107.774 520.745C106.399 519.609 105.025 518.455 103.651 517.301C95.5341 510.43 87.802 503.101 80.473 495.369C79.6301 494.507 78.8239 493.646 78.0177 492.767C73.8585 488.278 69.8459 483.661 65.9798 478.915C62.4985 474.664 59.1638 470.322 55.9391 465.888C24.5159 422.72 4.52594 370.482 0.678197 313.279C-2.12516 271.833 3.82968 231.817 16.9486 195.044C21.8774 181.21 27.8322 167.835 34.7215 155.009C80.8944 68.8927 169.044 7.75028 273.721 0.677766C375.869 -6.21152 469.351 40.0163 527.086 115.78C530.787 120.617 534.323 125.564 537.713 130.64C565.27 171.884 582.731 220.677 586.322 273.721C591.269 347.029 568.861 415.867 527.818 470.23Z" fill="url(#paint0_linear_9872_1302)"/>
<path d="M250.433 583.867C238.871 582.181 227.53 579.781 216.426 576.758C198.69 571.939 181.577 565.489 165.288 557.537C163.822 556.841 162.375 556.108 160.927 555.375C159.223 557.446 157.519 559.498 155.833 561.513L154.294 552.059V551.876L131.739 414.2L142.861 419.99C144.913 418.396 148.431 414.237 152.297 409.674C158.234 402.693 165.05 394.76 168.897 393.752L195.373 386.808L225.697 378.874L226.485 378.672L226.888 378.563L254.097 371.435C254.72 371.728 255.362 372.04 256.003 372.369C275.993 382.593 302.176 408.868 316.449 446.191C318.446 451.395 320.517 456.818 322.642 462.462C323.118 463.707 323.595 464.953 324.071 466.218C326.856 473.602 329.77 481.279 332.719 489.176C343.42 517.631 355 548.779 365.81 578.004C365.517 578.077 365.205 578.15 364.912 578.223C361.449 579.085 357.968 579.891 354.45 580.624C341.075 583.464 327.333 585.388 313.279 586.322C310.861 586.487 308.424 586.634 306.023 586.707C305.309 586.762 304.613 586.78 303.898 586.798C296.807 587.055 289.771 587.055 282.79 586.817C275.645 586.56 268.572 586.047 261.573 585.278C257.835 584.893 254.134 584.417 250.433 583.867Z" fill="white"/>
<path d="M445.147 544.84C433.732 551.747 421.804 557.904 409.399 563.236C400.165 567.193 390.674 570.711 380.981 573.734C380.725 573.808 380.468 573.881 380.23 573.973C376.345 575.164 372.443 576.281 368.485 577.326C367.587 577.564 366.708 577.784 365.81 578.004C365.517 578.077 365.205 578.15 364.912 578.223C361.449 579.085 357.968 579.891 354.45 580.624C345.325 552.627 335.523 525.674 325.812 501.434C301.773 441.372 278.32 397.875 267.235 396.244L254.097 371.435C254.097 371.435 254.372 371.343 254.922 371.215C260.51 369.804 294.205 363.886 343.915 408.044H343.933C387.87 447.107 420.759 496.212 445.147 544.84Z" fill="#002B59"/>
<g style="mix-blend-mode:color-burn">
<path d="M243.214 455.554C242.756 489.194 237.149 533.736 216.426 576.758C198.69 571.939 181.577 565.489 165.288 557.537C163.822 556.841 162.375 556.108 160.927 555.375C188.154 522.266 216.389 482.268 227.255 442.27C229.032 435.637 230.351 429.023 231.121 422.445C231.725 417.223 231.982 412.038 231.835 406.889C231.762 404.159 231.579 401.447 231.286 398.754L239.109 399.707C239.109 399.707 239.329 400.788 239.659 402.84C240.539 408.172 242.224 420.027 242.921 436.169C243.195 442.087 243.324 448.591 243.214 455.554Z" fill="#DFEEFD"/>
</g>
<path d="M240.868 401.154C237.607 406.706 230.461 408.575 224.891 405.332L199.331 390.362L224.964 379.186C225.936 378.764 226.962 378.489 228.024 378.379L255.856 375.594L240.887 401.154H240.868Z" fill="#0051A8"/>
<path d="M226.467 378.654L267.235 396.244C267.235 396.244 266.19 376.767 245.339 363.41C245.339 363.41 242.041 374.587 226.467 378.654Z" fill="white"/>
<path d="M310.329 164.079C302.157 143.136 274.435 148.559 257.267 154.716C238.23 161.88 221.282 177.619 201.182 180.972C189.712 183.152 172.287 177.784 173.643 195.044C175.255 223.828 227.09 221.703 244.221 214.576C266.135 206.385 282.021 186.817 303.935 178.627L310.329 164.06V164.079Z" fill="#FFAA01"/>
<path d="M335.523 163.969C325.702 130.805 306.518 96.4134 271.595 86.7207C240.905 77.7793 214.887 74.4629 185.021 85.2916C246.182 92.2358 299.244 122.615 310.659 171.316L335.523 163.95V163.969Z" fill="#161915"/>
<path d="M232.257 285.484C231.377 246.64 232.129 193.028 280.372 177.088C304.759 169.026 329.733 153.543 352.673 164.628C373.505 174.559 386.643 194.806 406.303 206.88C429.976 220.439 463.836 213.989 480.088 238.688C492.749 257.286 480.582 279.657 461.6 287.976C443.406 296.038 425.028 294.334 405.148 296.624C362.109 302.212 321.909 335.56 284.201 295.763C281.581 292.96 279.786 289.918 276.927 286.29L232.257 285.484Z" fill="#FFAA01"/>
<path d="M333.471 314.269C364.253 318.574 378.764 346.461 406.065 357.162C401.576 354.029 397.984 347.946 397.105 341.936C401.997 349.43 410.279 353.222 419.715 354.908C398.846 338.748 384.242 313.554 407.476 292.373L402.125 274.289L343.2 283.67L325.94 288.782L333.489 314.269H333.471Z" fill="#FFAA01"/>
<path d="M289.863 175.475C261.115 135.898 192.57 114.113 143.063 112.739C211.772 94.3978 293.143 105.391 320.755 178.352C313.719 188.448 303.312 187.073 297.742 185.168L289.863 175.475Z" fill="#161915"/>
<path d="M293.491 184.417C280.134 166.332 254.794 178.847 239.842 189.272C223.334 201.182 211.113 220.805 192.588 229.307C182.09 234.419 163.859 233.796 169.685 250.103C178.792 277.459 228.244 261.83 242.921 250.47C261.921 236.838 272.127 213.769 291.127 200.137L293.491 184.417Z" fill="#FFAA01"/>
<path d="M190.225 245.028C190.225 245.028 191.746 244.533 194.421 243.8C195.777 243.489 197.389 242.957 199.13 242.224C200.907 241.583 202.886 240.795 204.993 239.769C207.137 238.871 209.354 237.625 211.681 236.361C214.026 235.133 216.353 233.503 218.826 231.982C223.645 228.721 228.647 224.983 233.576 221.08C238.541 217.214 243.434 213.22 248.216 209.647C253.016 206.092 257.579 202.849 261.756 200.467C263.79 199.185 265.75 198.177 267.509 197.316C269.25 196.418 270.771 195.685 272.072 195.172C274.655 194.091 276.139 193.541 276.139 193.541C276.139 193.541 274.838 194.494 272.53 196.015C270.203 197.499 267.07 199.918 263.35 202.812C255.893 208.566 246.585 217.012 236.618 224.983C234.052 226.907 231.542 228.867 228.94 230.663C226.394 232.532 223.682 234.107 221.117 235.683C218.478 237.167 215.895 238.578 213.33 239.659C210.783 240.795 208.346 241.766 206.001 242.426C203.729 243.25 201.512 243.69 199.569 244.02C197.627 244.423 195.96 244.68 194.567 244.753C191.801 244.973 190.188 245.028 190.188 245.028H190.225Z" fill="#FFE63A"/>
<path d="M443.314 247.263C443.314 247.263 443.864 246.823 444.725 246.31C445.586 245.779 446.722 245.193 447.968 244.735C450.46 243.818 453.245 243.782 455.481 244.826C457.569 245.541 459.145 247.391 460.153 249.773C460.648 250.964 461.032 252.192 461.271 253.181C461.509 254.152 461.619 254.885 461.619 254.885C461.619 254.885 461.142 255.398 460.354 256.003C459.567 256.626 458.486 257.322 457.24 257.89C454.748 259.026 451.651 259.209 449.086 258.257C446.832 257.194 445.147 254.995 444.286 252.485C443.864 251.221 443.608 249.975 443.479 248.967C443.351 247.978 443.351 247.263 443.351 247.263H443.314Z" fill="#FFE63A"/>
<path d="M418.964 266.502C418.964 266.502 422.445 266.978 427.429 268.132C429.921 268.7 432.797 269.415 435.875 270.221C438.935 271.027 442.178 271.87 445.44 272.731C448.683 273.574 451.926 274.454 454.968 275.15C456.507 275.461 457.954 275.993 459.365 276.231C460.776 276.506 462.113 276.817 463.341 277.129C465.815 277.77 467.903 278.008 469.369 278.393C470.853 278.76 471.696 278.961 471.696 278.961C471.696 278.961 470.853 279.144 469.351 279.382C467.848 279.547 465.668 280.042 463.066 279.969C460.464 279.987 457.386 279.969 454.161 279.456C452.567 279.199 450.845 279.126 449.196 278.686C447.529 278.32 445.843 277.935 444.157 277.55C440.841 276.561 437.506 275.626 434.52 274.399C431.496 273.244 428.748 272.017 426.439 270.826C421.804 268.536 418.945 266.52 418.945 266.52L418.964 266.502Z" fill="#FFE63A"/>
<path d="M345.619 428.382C340.928 389.611 344.592 350.914 353.992 313.133C356.191 304.301 360.368 236.581 341.752 240.942C341.716 240.942 232.147 264.944 232.147 264.944C234.236 295.048 175.182 334.35 168.879 393.752L315.679 515.817C339.719 485.383 348.495 452.329 345.6 428.382H345.619Z" fill="#FFAA01"/>
<path d="M374.88 307.013C374.88 307.013 373.176 307.16 370.171 307.288C368.668 307.269 366.928 307.837 364.949 308.167C362.988 308.46 360.753 309.358 358.334 309.945C353.479 311.429 347.946 313.481 341.643 315.185C340.103 315.661 338.454 316.009 336.787 316.339C335.12 316.669 333.452 317.109 331.657 317.145C329.861 317.237 328.175 317.493 326.233 317.42L321.14 317.145C317.622 316.632 313.975 316.064 310.677 315.002C308.973 314.598 307.361 313.975 305.785 313.279C304.21 312.62 302.615 312.033 301.186 311.172C299.739 310.348 298.273 309.651 296.935 308.772C295.635 307.856 294.37 306.94 293.143 306.06C290.761 304.21 288.635 302.286 286.84 300.398C285.154 298.493 283.322 296.697 282.277 294.902C281.123 293.161 280.079 291.677 279.309 290.376C277.733 287.811 276.909 286.308 276.909 286.308C276.909 286.308 278.1 287.536 280.06 289.771C281.013 290.907 282.277 292.208 283.707 293.729C285.062 295.36 286.895 296.551 288.782 298.31C290.724 299.885 292.941 301.461 295.286 303.019C296.514 303.733 297.76 304.484 299.043 305.236C300.362 305.932 301.736 306.555 303.11 307.233C304.466 307.966 305.969 308.424 307.453 308.955C308.937 309.505 310.439 310.036 311.997 310.384C315.111 311.337 318.245 311.74 321.451 312.18L326.545 312.546C327.992 312.62 329.696 312.418 331.235 312.363C334.405 312.107 337.575 311.612 340.635 310.934C346.755 309.633 352.581 308.057 357.675 307.178C360.277 306.83 362.549 306.317 364.747 306.335C366.891 306.335 368.76 306.06 370.226 306.335C373.194 306.72 374.88 307.013 374.88 307.013Z" fill="#FFE63A"/>
<path d="M218.093 261.903C218.093 261.903 219.468 261.225 221.923 260.144C223.132 259.576 224.671 259.026 226.302 258.147C227.933 257.285 229.747 256.296 231.762 255.325C233.668 254.152 235.793 252.943 237.918 251.587C239.971 250.085 242.004 248.637 244.148 246.658C246.329 244.808 248.582 242.866 250.469 240.74C252.485 238.688 254.519 236.618 256.424 234.254C260.455 229.82 264.12 225.001 267.931 220.695C269.763 218.497 271.632 216.444 273.483 214.539C275.315 212.615 276.982 210.783 278.778 209.28C280.5 207.723 282.131 206.367 283.56 205.158C285.117 204.095 286.473 203.161 287.573 202.409C289.808 200.925 291.109 200.137 291.109 200.137C291.109 200.137 290.046 201.292 288.177 203.161C287.243 204.095 286.107 205.231 284.806 206.532C283.633 207.961 282.314 209.574 280.83 211.259C279.309 212.908 277.898 214.942 276.268 216.958C274.655 218.973 273.025 221.19 271.302 223.444C267.858 227.951 264.211 232.861 260.125 237.515C258.165 239.861 255.911 242.096 253.676 244.276C251.514 246.603 249.114 248.289 246.86 250.03C244.734 251.844 242.096 253.364 239.787 254.739C237.405 256.003 235.042 256.956 232.916 257.89C230.718 258.678 228.666 259.301 226.87 259.869C225.074 260.455 223.48 260.693 222.179 261.042C219.559 261.628 218.057 261.903 218.057 261.903H218.093Z" fill="#FFE63A"/>
<path d="M349.008 210.948C348.77 211.094 348.532 211.259 348.294 211.479C346.168 213.33 346.406 216.628 346.773 219.138C347.396 223.407 350.657 234.437 357.272 230.663C363.959 226.833 358.133 216.573 354.908 212.67C353.332 210.783 351.189 209.628 349.008 210.929V210.948Z" fill="#0E0E0E"/>
<path d="M311.813 394.302C311.813 394.302 313.096 396.152 314.36 399.084C315.038 400.531 315.698 402.254 316.083 404.287C316.541 406.266 316.889 408.428 317.182 410.59C317.402 414.841 317.365 419.11 316.724 422.28C316.211 425.45 315.423 427.557 315.423 427.557C315.423 427.557 314.543 425.468 313.884 422.353C313.261 419.22 312.491 415.134 312.235 411.012C312.052 408.996 311.813 407.017 311.795 405.094C311.795 404.123 311.758 403.188 311.74 402.29C311.648 401.392 311.612 400.513 311.594 399.725C311.465 396.519 311.813 394.302 311.813 394.302Z" fill="#FFE63A"/>
<path d="M331.199 422.885C331.199 422.885 331.62 425.89 331.583 430.324C331.73 434.721 330.594 440.676 329.495 446.466C328.853 449.306 328.212 452.146 327.461 454.784C326.655 457.423 326.142 459.86 325.482 461.967C324.273 466.181 323.008 469.003 323.008 469.003C323.008 469.003 322.605 466.034 322.66 461.545C322.697 459.31 322.697 456.653 323.155 453.942C323.522 451.193 324.09 448.316 324.639 445.422C325.299 442.563 325.922 439.796 326.691 437.176C327.461 434.575 328.212 432.119 328.78 429.976C329.971 425.706 331.199 422.903 331.199 422.903V422.885Z" fill="#FFE63A"/>
<path d="M385.452 316.357C385.452 316.357 386.771 317.017 388.2 318.355C389.666 319.655 391.242 321.634 392.488 323.778C393.697 325.958 394.576 328.34 394.961 330.283C395.364 332.206 395.273 333.727 395.273 333.727C395.273 333.727 393.935 333.068 392.506 331.73C391.04 330.429 389.464 328.45 388.219 326.288C387.009 324.108 386.13 321.726 385.763 319.784C385.342 317.86 385.452 316.357 385.452 316.357Z" fill="#FFE63A"/>
<path d="M306.023 586.707C305.309 586.762 304.613 586.78 303.898 586.799C296.807 587.055 289.771 587.055 282.79 586.817C275.645 586.56 268.572 586.047 261.573 585.278C257.835 584.893 254.134 584.417 250.433 583.867C238.871 582.181 227.53 579.781 216.426 576.758C198.69 571.939 181.577 565.489 165.288 557.537C163.822 556.841 162.375 556.108 160.927 555.375C160.084 554.954 159.241 554.514 158.399 554.074C157.043 553.378 155.687 552.664 154.349 551.931C154.313 551.912 154.294 551.912 154.276 551.876C152.92 551.161 151.564 550.41 150.208 549.659C140.754 544.363 131.611 538.555 122.834 532.271C122.138 531.776 121.442 531.281 120.746 530.768C116.33 527.543 112.006 524.209 107.773 520.746L85.548 414.75C85.548 414.75 110.961 380.34 174.724 368.888H174.742C181.98 374.935 188.851 380.89 195.373 386.808C208.712 398.901 220.585 410.737 231.121 422.445C235.262 427.044 239.201 431.606 242.921 436.169C255.178 451.12 265.311 465.943 273.629 480.839C292.538 514.663 302.139 548.981 306.023 586.707Z" fill="#002B59"/>
<path d="M201.072 450.772C201.072 450.772 175.017 492.034 154.349 551.931C154.313 551.967 154.313 552.022 154.294 552.059V551.876C152.92 551.161 151.564 550.41 150.208 549.659C140.754 544.363 131.611 538.555 122.834 532.27C122.138 531.776 121.442 531.281 120.746 530.768C116.33 527.543 112.006 524.209 107.773 520.746C106.399 519.61 105.025 518.455 103.651 517.301C95.5338 510.43 87.8017 503.101 80.4727 495.369C79.6299 494.508 78.8237 493.647 78.0175 492.767C73.8583 488.278 69.8456 483.661 65.9796 478.915C70.9633 458.211 77.3945 436.792 85.5481 414.75C85.5481 414.75 119.701 402.199 152.297 409.674C171.572 414.108 190.298 425.56 201.072 450.772Z" fill="#004AA0"/>
<defs>
<linearGradient id="paint0_linear_9872_1302" x1="169.429" y1="27.447" x2="417.571" y2="559.571" gradientUnits="userSpaceOnUse">
<stop offset="0.05" stop-color="#344054"/>
<stop offset="1" stop-color="#667085"/>
</linearGradient>
</defs>
</svg>
