<svg width="587" height="588" viewBox="0 0 587 588" fill="none" xmlns="http://www.w3.org/2000/svg">
<path d="M531.001 466.693C512.334 492.438 489.551 515.094 463.573 533.625C451.572 542.207 438.869 549.901 425.576 556.596C394.687 572.224 360.549 582.562 324.268 586.372C320.631 586.742 316.957 587.075 313.264 587.315C298.235 588.333 283.409 588.203 268.842 586.982C268.344 586.945 267.845 586.909 267.346 586.853C262.805 586.465 258.281 585.947 253.795 585.336C241.572 583.69 229.571 581.268 217.828 578.124C211.237 576.367 204.719 574.388 198.313 572.15C198.165 572.131 198.036 572.076 197.906 572.02C193.881 570.652 189.893 569.172 185.961 567.619C174.809 563.198 163.99 558.131 153.521 552.435C141.428 545.85 129.833 538.416 118.81 530.241C108.489 522.566 98.6668 514.243 89.4352 505.31C38.9938 456.447 5.77857 389.441 0.68273 313.798C-10.2475 151.804 111.997 11.6143 273.716 0.68401C435.435 -10.2648 575.386 112.188 586.316 274.183C591.135 345.683 570.013 412.929 531.001 466.693Z" fill="url(#paint0_linear_9872_1526)"/>
<path d="M218.641 517.831C218.641 537.565 218.327 558.205 217.829 578.124C211.237 576.367 204.72 574.388 198.313 572.15C197.944 573.759 197.575 575.387 197.224 577.051L197.907 572.021C193.882 570.652 189.894 569.173 185.961 567.619C174.809 563.199 163.99 558.131 153.521 552.435C141.428 545.851 129.833 538.416 118.811 530.241C108.49 522.566 98.6673 514.243 89.4357 505.311C99.5166 481.212 111.795 457.89 129.962 439.377C134.874 434.384 144.179 426.893 154.98 420.254C163.824 414.798 173.665 409.934 182.915 407.492C185.684 406.734 188.417 406.216 191.039 405.994C193.863 405.717 196.578 405.754 199.125 406.179C202.781 406.771 206.086 408.158 208.892 410.489C212.087 413.133 214.339 423.509 215.872 438.822C216.721 447.256 217.349 457.169 217.773 468.118C218.383 483.154 218.641 500.114 218.641 517.831Z" fill="#1D2939"/>
<path d="M463.574 533.626C451.573 542.207 438.87 549.901 425.576 556.596C394.688 572.224 360.549 582.563 324.269 586.372C320.632 586.742 316.958 587.075 313.265 587.316C298.236 588.333 283.41 588.203 268.842 586.983C268.344 586.946 267.845 586.909 267.347 586.853C262.805 586.465 258.282 585.947 253.795 585.337C241.572 583.691 229.571 581.268 217.829 578.124C211.237 576.367 204.72 574.388 198.313 572.15C197.944 573.759 197.575 575.387 197.224 577.051L197.907 572.021C193.882 570.652 189.894 569.172 185.961 567.619C174.809 563.199 163.99 558.131 153.521 552.435C141.428 545.851 129.833 538.416 118.811 530.241C120.103 525.488 121.432 520.735 122.817 516C123.26 514.502 123.703 513.078 124.128 511.543C128.208 497.247 132.455 483.006 137.108 468.895C142.48 452.619 164.876 434.18 172.225 418.626C175.53 411.617 162.033 406.494 166.446 400.168C168.514 397.191 170.729 394.343 173.037 391.605C179.37 384.115 186.589 377.494 194.399 371.761C195.802 370.725 197.224 369.726 198.664 368.783C202.8 365.935 207.083 363.346 211.496 360.997C216.629 358.223 221.927 355.744 227.337 353.58H227.356C234.353 350.751 241.517 348.42 248.773 346.571C274.455 340.005 300.876 339.247 327.223 340.005C330.583 340.098 335.144 340.93 340.406 342.262C343.581 343.057 346.72 343.982 349.785 344.999C385.197 356.688 414.018 382.284 431.245 415.112C435.639 423.49 439.276 432.312 442.064 441.504C450.446 469.024 457.555 500.243 463.574 533.626Z" fill="#1D2939"/>
<path d="M371.959 368.561L365.922 381.341L311.935 495.712L268.842 586.983C268.344 586.946 267.845 586.909 267.347 586.853C262.805 586.465 258.281 585.947 253.795 585.337C241.572 583.691 229.571 581.268 217.829 578.124C211.237 576.367 204.72 574.388 198.313 572.15C197.944 573.759 197.575 575.387 197.224 577.051L197.907 572.021C193.882 570.652 189.894 569.173 185.961 567.619L195.636 449.031L199.125 406.179L201.784 373.666C208.597 377.864 215.668 381.452 222.924 384.43C223.017 384.467 223.109 384.504 223.183 384.541C258.632 399.022 298.531 399.003 334.128 384.208C338.449 382.414 342.695 380.398 346.868 378.178L364.888 368.561H371.959Z" fill="#EEEAEE"/>
<path d="M368.341 363.087C371.369 380.675 374.36 399.059 369.042 416.074C362.728 436.251 345.963 450.992 331.045 465.954C322.146 474.887 313.671 484.245 305.677 494.01C307.431 491.865 302.63 477.088 301.984 474.165C300.47 467.285 298.697 460.442 296.722 453.673C292.808 440.376 286.678 427.947 282.468 414.835C278.093 401.223 295.023 403.608 304.144 401.408C315.776 398.596 327.02 394.121 337.415 388.184C348.991 381.563 359.515 373.092 368.341 363.105V363.087Z" fill="#D0D5DD"/>
<path d="M246.262 416.74C238.914 432.275 228.094 444.352 221.023 460.11C215.89 471.539 212.696 484.985 205.532 494.01C200.603 475.849 196.67 456.91 193.753 437.435C191.334 421.326 189.654 404.274 192.608 386.963C193.587 381.267 195.1 375.515 197.667 370.596C200.676 364.825 207.489 354.894 211.311 360.701C215.17 366.545 217.718 374.905 221.207 381.341C228.445 394.676 236.864 406.586 246.262 416.74Z" fill="#D0D5DD"/>
<path d="M277.539 546.276C277.372 559.13 272.904 573.075 267.347 586.853C262.805 586.465 258.282 585.947 253.795 585.337C241.572 583.691 229.571 581.268 217.829 578.124C211.237 576.367 204.72 574.388 198.313 572.15C202.633 553.618 230.624 457.89 259.463 457.89C288.303 457.89 277.612 540.839 277.539 546.276Z" fill="#015364"/>
<path d="M232.802 427.3C231.824 421.215 232.987 414.317 237.677 410.322C240.668 407.77 244.693 406.771 248.625 406.494C253.555 406.142 258.485 406.827 263.377 407.511C272.535 408.787 281.693 410.063 290.851 411.339C293.472 411.709 296.186 412.098 298.421 413.522C302.649 416.185 304.107 421.918 303.092 426.801C302.058 431.683 299.048 435.9 295.91 439.784C291.995 444.611 287.804 449.198 283.595 453.784C276.412 461.608 260.553 485.484 248.293 472.982C243.012 467.6 242.274 459.185 240.631 452.249C238.618 443.76 234.206 435.9 232.821 427.282L232.802 427.3Z" fill="#015364"/>
<path d="M227.356 353.581L223.183 384.541L223.146 384.818L215.871 438.822L209.169 488.536L197.907 572.021C193.882 570.652 189.894 569.173 185.961 567.619C174.809 563.199 163.99 558.131 153.521 552.435L148.518 457.428L180.681 427.67L143.145 405.828L227.337 353.599H227.356V353.581Z" fill="#344054"/>
<path d="M445.092 404.737L431.743 414.761L431.245 415.131L411.157 430.241L408.221 432.442L383.942 450.677L385.881 501.556L324.269 586.373C320.632 586.742 316.957 587.075 313.265 587.316C298.236 588.333 283.41 588.204 268.842 586.983C268.344 586.946 267.845 586.909 267.347 586.853C262.805 586.465 258.281 585.947 253.795 585.337L296.574 478.253L325.617 405.513L334.128 384.208L349.785 344.999L352.37 338.544L445.092 404.737Z" fill="#344054"/>
<path d="M531.001 466.694C512.335 492.438 489.551 515.094 463.574 533.626C451.573 542.207 438.87 549.901 425.576 556.596C415.477 506.402 406.947 454.839 408.221 432.442L411.157 430.241L431.245 415.112L431.706 414.761H431.743C453.807 414.539 483.458 427.652 494.666 434.938C508.845 444.13 520.791 454.857 531.001 466.694Z" fill="#1D2939"/>
<path d="M147.373 148.493C146.45 144.166 145.841 139.708 146.265 135.307C147.908 118.514 164.895 106.289 181.715 105.308C198.535 104.328 214.671 112.133 228.482 121.787C223.571 118.347 184.521 154.856 179.887 159.239C174.809 164.047 167.479 176.087 159.522 173.424C151.657 170.798 148.832 155.318 147.355 148.493H147.373Z" fill="#FEDF89"/>
<path d="M160.186 144.572C159.67 142.168 159.337 139.69 159.577 137.249C160.482 127.909 169.935 121.121 179.277 120.585C188.62 120.03 197.593 124.376 205.255 129.74C202.523 127.835 180.828 148.105 178.262 150.546C175.437 153.228 171.357 159.905 166.944 158.425C162.568 156.964 160.999 148.364 160.186 144.572Z" fill="#FEC84B"/>
<path d="M271.704 418.756C283.096 415.427 294.709 412.541 305.917 408.713C343.138 396.026 376.594 372.445 401.113 341.67C405.101 336.658 426.075 294.694 426.167 294.712C419.077 292.826 419.096 280.342 426.204 278.492C419.982 276.865 415.219 270.743 415.182 264.288C417.083 263.456 419.225 263.216 421.274 263.586C417.194 258.648 413.132 253.709 409.052 248.771C411.581 247.199 414.129 245.627 416.659 244.055C412.024 242.613 408.535 238.026 408.369 233.162C408.203 228.298 411.378 223.489 415.902 221.732C412.006 219.05 408.11 216.387 404.233 213.706C405.304 212.503 407.132 212.06 408.627 212.633C399.303 202.812 395.371 189.2 389.315 177.086C377.461 153.376 356.321 134.493 331.451 125.394C316.865 120.067 301.301 118.033 285.829 116.868C263.987 115.24 241.72 115.314 220.58 121.047C175.769 133.198 162.439 167.561 142.203 205.364C146.45 204.921 150.623 203.977 154.648 202.553C152.432 211.856 146.118 220.105 137.717 224.654C138.455 227.059 141.151 228.686 143.625 228.205C143.422 233.698 139.212 238.803 133.858 240.042C137.643 241.263 138.64 246.607 136.757 250.103C134.874 253.617 131.162 255.688 127.654 257.575C132.75 262.494 126.233 266.563 124.922 270.835C123.149 276.643 122.891 277.678 124.959 284.632C128.319 295.988 133.101 307.011 138.714 317.405C149.976 338.285 165.282 357.02 183.653 372.038C194.657 381.045 206.806 388.831 216.241 399.484C224.919 409.305 231.03 421.382 233.799 434.199C245.542 427.06 258.503 422.602 271.741 418.756H271.704Z" fill="url(#paint1_linear_9872_1526)"/>
<path d="M418.856 175.662C420.979 170.447 422.733 165.009 423.158 159.387C424.819 137.988 406.245 118.902 385.419 113.927C366.162 109.322 345.963 114.26 327.685 122.157C325.469 123.119 324.897 126.004 326.54 127.761C337.47 139.524 370.261 178.325 374.304 183.8C379.585 190.957 387.561 205.753 398.103 204.181C408.535 202.627 415.514 183.874 418.856 175.662Z" fill="#FEDF89"/>
<path d="M395.5 168.135C396.682 165.231 397.642 162.216 397.9 159.091C398.823 147.199 388.502 136.601 376.926 133.827C369.061 131.941 360.9 132.939 353.108 135.325C348.696 136.675 347.274 142.224 350.45 145.59C358.573 154.208 369.725 169.096 371.553 171.575C374.489 175.551 378.108 184.835 383.979 183.966C389.776 183.097 393.654 172.684 395.518 168.116L395.5 168.135Z" fill="#FEC84B"/>
<path d="M219.269 284.836C226.359 284.207 233.208 282.154 240.114 280.434C243.511 279.583 247.776 279.103 249.918 281.895C252.41 285.15 249.788 289.811 246.945 292.752C235.055 305.05 218.696 311.727 202.818 318.071C201.932 318.422 201.009 318.774 200.067 318.663C199.181 318.552 198.405 318.034 197.704 317.497C190.632 312.282 175.234 293.806 182.619 284.3C189.118 275.921 210.388 285.613 219.269 284.836Z" fill="#00093F"/>
<path d="M177.117 207.362C183.266 202.257 190.577 199.65 197.759 198.152C205.551 196.524 213.582 196.136 220.598 198.78C227.596 201.425 233.467 207.491 234.87 215.721C235.59 219.92 235.147 224.451 234.261 228.89C232.175 239.45 227.079 250.436 218.512 256.373C210.443 261.958 200.953 262.087 192.183 261.514C183.709 260.959 174.92 259.757 168.643 254.227C156.697 243.704 164.415 217.922 177.117 207.38V207.362Z" fill="#FEC84B"/>
<path d="M210.72 227.54C210.093 227.096 209.668 226.522 210.129 225.801C210.61 225.043 212.013 224.247 213.527 223.73C213.822 223.637 214.118 223.637 214.413 223.545C214.118 222.99 213.822 222.453 213.416 221.991C212.327 220.807 210.665 220.068 209.096 220.364C207.6 220.66 206.418 221.806 205.514 223.045C201.692 228.316 201.858 236.121 205.901 241.226C206.252 241.651 206.64 242.095 207.157 242.261C214.413 241.392 216.352 234.475 215.853 228.816C213.693 228.686 211.81 228.316 210.72 227.558V227.54Z" fill="#00093F"/>
<path d="M339.63 203.126C331.894 197.116 322.183 194.231 312.508 192.714C302.002 191.049 290.998 190.92 280.973 194.489C270.947 198.059 262.011 205.771 258.891 215.962C257.303 221.159 257.266 226.726 257.857 232.126C259.242 245.017 264.688 258.314 275.637 265.231C285.958 271.742 299.03 271.483 311.179 270.391C322.921 269.337 335.199 267.488 344.634 260.386C362.58 246.922 355.619 215.536 339.63 203.126Z" fill="#FEC84B"/>
<path d="M302.132 237.046C301.541 236.935 300.931 236.805 300.47 236.565C300.138 236.398 299.934 236.176 299.768 235.954C297.867 233.55 300.008 231.775 303.35 230.684C303.35 230.647 303.35 230.628 303.35 230.591C302.944 228.982 302.205 227.317 300.802 226.43C299.325 225.468 297.35 225.561 295.762 226.319C294.174 227.077 292.937 228.409 291.921 229.851C288.155 235.252 285.81 244.961 292.697 248.938C293.066 249.16 293.472 249.345 293.897 249.382C294.506 249.419 295.06 249.141 295.596 248.845C299.824 246.422 302.575 241.928 303.405 237.138C302.981 237.083 302.556 237.101 302.132 237.027V237.046Z" fill="#00093F"/>
<path d="M259.463 325.45C258.651 331.553 254.755 337.268 249.678 341.152C244.563 345.091 238.378 347.403 232.138 348.365C225.879 349.327 219.527 348.975 213.508 347.57C207.489 346.146 201.766 343.723 196.836 340.116C202.91 340.856 208.634 341.577 214.321 341.799C219.989 342.058 225.583 341.873 231.011 341.041C241.868 339.34 252.115 335.215 259.463 325.432V325.45Z" fill="#00093F"/>
<path d="M198.83 310.858C198.83 310.858 200.769 341.559 230.273 345.369" stroke="#00093F" stroke-width="3" stroke-miterlimit="10"/>
<defs>
<linearGradient id="paint0_linear_9872_1526" x1="169.436" y1="27.4827" x2="418.258" y2="560.174" gradientUnits="userSpaceOnUse">
<stop stop-color="#489B1C"/>
<stop offset="1" stop-color="#B4E87B"/>
</linearGradient>
<linearGradient id="paint1_linear_9872_1526" x1="298.956" y1="90.3833" x2="239.62" y2="568.667" gradientUnits="userSpaceOnUse">
<stop stop-color="#FEDF89"/>
<stop offset="1" stop-color="#FFFAEB"/>
</linearGradient>
</defs>
</svg>
