<svg width="587" height="587" viewBox="0 0 587 587" fill="none" xmlns="http://www.w3.org/2000/svg">
<path d="M527.818 470.23C520.929 479.373 513.508 488.095 505.611 496.358C495.296 507.15 484.156 517.154 472.283 526.279C469.956 528.074 467.61 529.815 465.247 531.537C462.682 533.388 460.08 535.202 457.441 536.979C442.399 547.148 426.33 555.961 409.4 563.235C400.165 567.193 390.674 570.711 380.981 573.734C380.725 573.808 380.468 573.881 380.23 573.972C358.921 580.532 336.513 584.764 313.279 586.322C291.86 587.769 270.826 586.872 250.433 583.867C220.421 579.451 191.783 570.455 165.288 557.537C162.979 556.419 160.671 555.265 158.399 554.074C155.65 552.645 152.92 551.179 150.209 549.658C140.754 544.363 131.611 538.555 122.835 532.27C122.138 531.776 121.442 531.281 120.746 530.768C106.271 520.214 92.7857 508.359 80.473 495.369C79.6301 494.507 78.8239 493.646 78.0177 492.767C34.0069 445.256 5.36877 382.941 0.678197 313.279C-2.12516 271.833 3.82968 231.817 16.9486 195.044C21.8774 181.21 27.8322 167.835 34.7215 155.009C80.8944 68.8927 169.044 7.75028 273.721 0.677766C375.869 -6.21152 469.351 40.0163 527.086 115.78C530.787 120.617 534.323 125.564 537.713 130.64C565.27 171.884 582.731 220.677 586.322 273.721C591.269 347.029 568.861 415.867 527.818 470.23Z" fill="url(#paint0_linear_9872_1347)"/>
<path d="M250.433 583.867C220.42 579.451 191.782 570.455 165.288 557.537C162.979 556.42 160.671 555.265 158.399 554.074C156.273 534.396 154.239 514.681 152.425 494.966C151.748 487.564 151.088 480.143 150.502 472.722C149.256 456.947 148.303 441.134 147.955 425.34C147.277 395.071 148.834 364.857 154.881 335.23C155.119 334.057 155.357 332.903 155.632 331.748C156.64 327.058 157.776 322.386 159.04 317.768C161.825 307.599 165.196 297.613 169.209 287.866C169.832 286.363 170.455 284.861 171.133 283.359C182.31 257.634 198.085 233.686 218.918 214.741C227.695 206.752 242.847 194.109 241.766 210.16C241.656 211.534 241.455 213.11 241.107 214.924C240.96 215.748 240.759 216.554 240.575 217.361C240.539 217.544 240.502 217.727 240.447 217.929C240.227 218.863 239.989 219.798 239.732 220.732V220.824C239.476 221.648 239.256 222.473 239 223.279C235.042 235.976 228.079 247.721 221.685 259.264C209.335 281.581 198.177 305.107 194.732 330.393C194.622 331.217 194.512 332.042 194.421 332.866C194.421 333.104 194.384 333.324 194.347 333.562C194.274 334.277 194.201 334.973 194.128 335.669C193.578 341.441 193.413 347.249 193.505 353.058C193.505 353.864 193.523 354.633 193.541 355.421C193.56 356.704 193.596 357.986 193.651 359.287C193.651 359.434 193.67 359.562 193.651 359.69C193.688 360.313 193.706 360.9 193.743 361.504C193.963 366.488 194.329 371.49 194.732 376.474V376.565C194.861 378.251 195.007 379.937 195.172 381.622C195.3 383.088 195.429 384.572 195.575 386.056C195.685 387.376 195.813 388.677 195.96 389.996C196.876 399.194 198.03 408.392 199.514 417.516C199.716 418.817 199.936 420.118 200.156 421.401C200.229 421.804 200.302 422.207 200.376 422.61C200.412 422.812 200.449 423.013 200.486 423.196C200.724 424.699 201.017 426.201 201.31 427.685C201.622 429.389 201.97 431.075 202.318 432.761C202.574 434.08 202.867 435.417 203.161 436.737C203.252 437.085 203.326 437.451 203.399 437.799C203.765 439.485 204.168 441.152 204.59 442.82C204.975 444.487 205.396 446.155 205.854 447.822C205.946 448.243 206.074 448.683 206.184 449.104C206.935 451.963 207.741 454.803 208.602 457.643C208.694 457.899 208.767 458.156 208.841 458.412C210.215 462.865 211.717 467.28 213.348 471.641C216.683 480.509 220.567 489.176 224.525 497.806C230.315 510.448 236.251 523.036 240.74 536.173C246.017 551.564 249.279 567.651 250.433 583.867Z" fill="url(#paint1_linear_9872_1347)"/>
<path d="M198.69 439.815C201.823 445.898 205.268 451.816 208.657 457.734C200.614 431.442 196.913 403.884 194.732 376.474C193.761 364.528 193.047 352.563 193.798 340.672C193.963 337.172 194.293 333.727 194.732 330.264C198.14 305.016 209.335 281.49 221.666 259.173C229.454 245.101 238.047 230.809 241.107 214.832C237.772 217.379 234.767 220.512 233.448 221.795C217.416 237.002 204.315 255.215 194.842 275.113C189.474 286.382 185.314 298.291 182.419 310.439C172.104 353.644 178.315 400.385 198.69 439.815Z" fill="#FDB022"/>
<path d="M227.768 492.749C226.705 494.453 225.606 496.157 224.525 497.806C221.446 502.478 218.332 506.711 215.528 509.642C208.529 516.953 189.162 535.33 165.288 557.537C162.979 556.42 160.671 555.265 158.399 554.074C155.65 552.645 152.92 551.179 150.208 549.659C140.754 544.363 131.611 538.555 122.834 532.271C122.138 531.776 121.442 531.281 120.746 530.768C106.271 520.214 92.7854 508.36 80.4727 495.369C96.1018 477.981 107.553 464.715 109.862 460.813C113.362 454.858 117.503 449.306 122.34 444.341C125.619 440.969 128.844 437.708 132.435 434.849C137.273 431.002 142.476 427.832 147.955 425.34C161 419.349 175.457 417.223 189.547 419.147C190.445 419.257 191.361 419.404 192.277 419.568C194.934 420.027 197.554 420.631 200.156 421.401H200.174C200.321 421.437 200.467 421.474 200.595 421.529C200.724 421.566 200.834 421.584 200.944 421.639C206.056 423.178 211.039 425.285 215.821 427.978C218.735 429.628 221.318 431.826 223.682 434.208C225.459 436.022 227.163 437.946 228.501 440.126C231.377 444.799 233.374 449.892 234.474 455.133C234.987 457.459 235.317 459.823 235.463 462.187C236.141 472.686 233.521 483.441 227.768 492.749Z" fill="#1D2939"/>
<path d="M362.42 364.876C365.242 380.267 368.357 396.152 377.243 409.051C351.225 433.439 317.219 447.84 282.571 456.25C255.6 462.791 226.485 465.815 200.669 455.682C197.737 454.528 194.714 453.099 193.047 450.442C191.031 447.254 193.688 444.689 194.622 441.043C197.334 430.415 201.365 419.55 206.33 409.784C218.662 385.562 223.37 357.51 219.614 330.576C219.046 326.453 218.295 322.147 219.651 318.226C220.769 315.02 223.187 312.436 225.624 310.054C252.228 283.945 288.434 268.041 325.574 265.439C333.251 264.908 341.514 262.874 345.948 269.763C350.181 276.323 349.558 291.017 350.822 298.621C354.505 320.737 358.371 342.834 362.42 364.894V364.876Z" fill="url(#paint2_linear_9872_1347)"/>
<path d="M354.835 287.921C353.351 292.556 351.39 297.082 349.283 301.48L347.726 304.759C346.516 307.324 344.171 309.89 341.423 312.271C333.709 318.923 324.071 322.88 313.957 324.254C294.883 326.985 252.412 331.987 226.32 334.937C212.285 336.549 198.159 336.311 184.142 334.808C172.415 333.562 160.872 332.28 149.366 331.052C136.448 329.696 124.74 323.027 116.935 312.876C113.472 308.405 110.815 303.238 109.147 297.595C107.114 290.944 106.766 284.018 107.883 277.22C109.239 268.426 113.105 259.961 118.913 252.833L157.684 205.304C177.527 180.972 204.187 163.016 234.144 153.616C254.977 147.204 276.891 145.023 298.584 147.313C322.569 149.842 342.595 167.047 349.411 190.17L355.165 209.555C362.677 234.987 362.64 262.214 354.816 287.866L354.835 287.921Z" fill="url(#paint3_linear_9872_1347)"/>
<path d="M246.622 210.874C242.756 215.803 240.282 221.666 236.764 226.852C233.155 232.165 227.914 237.057 221.208 237.534C213.971 238.047 207.045 234.785 210.563 227.456C216.444 215.199 233.888 207.65 246.622 210.874Z" fill="#101828"/>
<path d="M162.704 281.783C168.806 282.79 175.494 283.505 179.891 287.866C184.417 292.337 185.095 299.867 182.291 305.584C179.488 311.3 173.735 315.203 167.56 316.797C161.403 318.391 154.862 317.878 148.651 316.486C139.288 314.379 129.907 309.853 124.795 301.736C119.738 293.729 119.958 277.056 131.263 273.922C139.655 271.614 154.074 280.372 162.704 281.783Z" fill="#F79009"/>
<path d="M123.183 302.084C122.01 306.152 119.811 309.78 116.916 312.913C113.453 308.442 110.797 303.275 109.129 297.632C107.095 290.981 106.747 284.055 107.865 277.257C108.415 277.147 108.909 277.111 109.422 277.074C121.167 276.946 125.931 292.996 123.201 302.066L123.183 302.084Z" fill="#F79009"/>
<path d="M136.1 274.289C135.935 274.912 135.495 275.443 135.056 275.938C132.417 278.943 129.632 281.819 126.719 284.549C119.793 290.999 107.572 284.11 114.021 275.48C117.118 271.339 137.731 268.352 136.1 274.307V274.289Z" fill="#101828"/>
<path d="M409.399 563.236C400.165 567.193 390.674 570.711 380.981 573.734C380.725 573.808 380.468 573.881 380.23 573.973C358.921 580.532 336.512 584.765 313.279 586.322C291.86 587.77 270.826 586.872 250.433 583.867C220.42 579.451 191.782 570.455 165.288 557.537C162.979 556.42 160.671 555.265 158.399 554.074C155.65 552.645 152.92 551.179 150.208 549.659C140.754 544.363 131.611 538.555 122.834 532.27C129.541 511.328 138.903 491.356 150.502 472.722C159.113 458.852 168.971 445.696 179.891 433.457L190.463 421.602L192.277 419.568L198.708 412.349H198.727L203.161 407.366C202.025 411.946 201.09 416.765 200.595 421.529C200.54 421.987 200.486 422.445 200.449 422.921V422.976C199.606 432.816 200.76 442.325 206.184 449.104C206.184 449.123 206.202 449.141 206.22 449.159C208.144 451.578 210.618 453.63 213.733 455.242C220.036 458.504 227.566 457.075 234.474 455.132C235.024 454.986 235.592 454.821 236.141 454.656C264.138 446.484 291.659 436.718 318.538 425.413C325.665 422.427 334.9 416.417 343.585 412.459C347.139 410.847 358.683 405.57 364.344 403.756C365.389 403.426 366.213 403.206 366.781 403.151C366.781 403.151 370.006 407.256 373.67 412.258C375.338 414.493 377.078 416.912 378.672 419.22C387.834 432.467 394.32 448.591 398.901 466.401C406.468 495.827 408.813 529.852 409.399 563.236Z" fill="#1D2939"/>
<path d="M472.282 526.279C469.955 528.075 467.61 529.815 465.247 531.538C462.681 533.388 460.08 535.202 457.441 536.979C442.398 547.148 426.329 555.962 409.399 563.236C400.165 567.193 390.674 570.711 380.981 573.734C380.725 573.075 380.468 572.415 380.212 571.774C367.569 539.636 356.795 513.453 353.516 508.488C349.704 502.716 346.535 496.56 344.208 490.037C342.632 485.603 341.111 481.279 340.14 476.808C336.897 461.985 338.235 446.869 343.511 433.292C347.872 422.024 354.945 411.836 364.344 403.756C366.341 402.034 368.448 400.421 370.665 398.901C370.904 398.736 371.16 398.571 371.398 398.424C373.982 396.757 376.804 395.548 379.717 394.576C382.135 393.77 384.609 393.092 387.156 392.854C391.37 392.451 395.584 392.616 399.67 393.312C399.67 393.312 399.688 393.312 399.688 393.331C404.599 394.173 409.344 395.767 413.778 398.058C421.932 402.217 429.023 408.63 434.08 416.673C438.202 423.233 441.977 429.939 443.864 435.088C446.997 443.608 453.74 465.008 461.912 491.851C465.192 502.606 468.691 514.259 472.282 526.279Z" fill="#1D2939"/>
<path d="M465.247 531.538C462.681 533.388 460.08 535.202 457.441 536.979C442.398 547.148 426.329 555.962 409.399 563.236C400.165 567.193 390.674 570.711 380.981 573.735C380.725 573.808 380.468 573.881 380.23 573.973C380.212 573.24 380.193 572.507 380.212 571.774C380.23 562.668 380.889 553.58 382.227 544.583C385.635 521.442 393.312 499.143 397.398 476.112C397.966 472.887 398.461 469.644 398.901 466.401C399.12 464.789 399.322 463.176 399.505 461.545C399.652 460.263 399.78 458.98 399.908 457.698C400.037 456.232 400.165 454.784 400.293 453.319C400.403 452.073 400.495 450.827 400.568 449.581C400.641 448.591 400.696 447.602 400.751 446.613C400.806 445.825 400.843 445.018 400.879 444.231C400.879 443.754 400.934 443.259 400.953 442.765C401.008 441.464 401.063 440.145 401.099 438.844C401.136 437.488 401.173 436.114 401.191 434.74C401.209 433.75 401.227 432.742 401.227 431.753C401.337 420.43 400.861 409.088 400.037 397.801C399.927 396.317 399.817 394.815 399.688 393.331C399.688 393.312 399.67 393.312 399.67 393.312C399.524 391.407 399.377 389.519 399.194 387.632C398.937 384.811 398.662 381.971 398.369 379.149C398.076 376.181 397.765 373.194 397.38 370.226C396.134 359.58 394.411 349.008 391.462 338.729C391.223 337.886 390.985 337.044 390.729 336.219C390.49 335.431 390.234 334.625 389.977 333.837C383.161 313.169 371.05 294.755 357.547 277.569C355.238 274.6 352.893 271.687 350.511 268.81C340.488 256.608 329.568 244.313 323.613 229.453C323.521 229.234 323.43 228.995 323.338 228.757C314.855 206.935 334.185 217.745 345.142 224.543C350.309 227.749 355.311 231.231 360.112 234.969C365.7 239.293 371.032 243.965 376.107 248.912C387.944 260.455 398.369 273.501 407.329 287.371C416.307 301.26 423.856 316.028 430.049 331.345C450.094 380.889 456.69 434.721 461.564 487.948C461.674 489.249 461.802 490.55 461.912 491.851C463.103 505.08 464.202 518.309 465.247 531.538Z" fill="url(#paint4_linear_9872_1347)"/>
<path d="M406.01 442.16C404.049 448.72 401.722 455.151 399.469 461.6C402.583 434.281 401.209 406.504 398.351 379.149C397.142 367.221 395.639 355.33 392.744 343.786C391.938 340.378 391.004 337.044 389.922 333.727C381.97 309.523 366.671 288.434 350.492 268.719C340.268 256.296 329.22 243.818 323.302 228.666C327.039 230.571 330.576 233.1 332.096 234.107C350.621 246.145 366.836 261.665 379.772 279.511C387.101 289.607 393.367 300.563 398.424 311.978C416.435 352.581 418.854 399.67 405.991 442.16H406.01Z" fill="#FDB022"/>
<path d="M255.013 197.297C233.43 188.759 210.911 182.383 191.269 169.575C184.142 164.921 178.187 158.472 174.687 150.703C167.67 134.799 172.672 116.696 185.882 106.179C187.605 104.805 189.419 103.394 191.251 101.983C224.177 76.6983 266.832 67.4271 307.16 77.3213C309.102 77.7976 310.164 78.0908 310.164 78.0908C320.718 80.2529 335.669 87.6918 345.106 92.8771C382.026 113.179 408.776 151.528 415.959 193.303C417.901 204.645 418.487 216.554 414.658 227.401C410.81 238.23 401.777 247.794 390.417 249.59C384.829 250.488 379.112 249.498 373.561 248.417C346.498 243.159 272.457 204.205 255.013 197.297Z" fill="url(#paint5_linear_9872_1347)"/>
<defs>
<linearGradient id="paint0_linear_9872_1347" x1="169.429" y1="27.447" x2="417.571" y2="559.571" gradientUnits="userSpaceOnUse">
<stop stop-color="#038C8C"/>
<stop offset="1" stop-color="#5BDCC6"/>
</linearGradient>
<linearGradient id="paint1_linear_9872_1347" x1="231.634" y1="224.781" x2="165.563" y2="751.482" gradientUnits="userSpaceOnUse">
<stop stop-color="#FEDF89"/>
<stop offset="1" stop-color="#F79009"/>
</linearGradient>
<linearGradient id="paint2_linear_9872_1347" x1="281.471" y1="72.6856" x2="286.052" y2="564.995" gradientUnits="userSpaceOnUse">
<stop stop-color="#FEDF89"/>
<stop offset="1" stop-color="#F79009"/>
</linearGradient>
<linearGradient id="paint3_linear_9872_1347" x1="232.202" y1="73.1437" x2="236.782" y2="565.453" gradientUnits="userSpaceOnUse">
<stop stop-color="#FEDF89"/>
<stop offset="1" stop-color="#F79009"/>
</linearGradient>
<linearGradient id="paint4_linear_9872_1347" x1="411.525" y1="229.912" x2="351.005" y2="712.381" gradientUnits="userSpaceOnUse">
<stop stop-color="#FEDF89"/>
<stop offset="1" stop-color="#F79009"/>
</linearGradient>
<linearGradient id="paint5_linear_9872_1347" x1="342.247" y1="21.4924" x2="277.037" y2="230.186" gradientUnits="userSpaceOnUse">
<stop stop-color="#FF7765"/>
<stop offset="0.07" stop-color="#FC7060"/>
<stop offset="0.7" stop-color="#E4393B"/>
<stop offset="1" stop-color="#DB242D"/>
</linearGradient>
</defs>
</svg>
