<svg width="587" height="587" viewBox="0 0 587 587" fill="none" xmlns="http://www.w3.org/2000/svg">
<path d="M527.818 470.23C521.68 478.384 515.103 486.207 508.14 493.665C507.315 494.562 506.473 495.46 505.611 496.358C497.861 504.475 489.634 512.134 480.986 519.316C478.128 521.698 475.233 524.007 472.283 526.279C471.055 527.232 469.809 528.166 468.582 529.082C467.464 529.907 466.365 530.731 465.247 531.537C462.682 533.388 460.08 535.202 457.441 536.979C453.41 539.691 449.325 542.329 445.147 544.839C437.397 549.53 429.408 553.873 421.199 557.83C417.681 559.553 414.127 561.183 410.517 562.741C410.151 562.906 409.766 563.07 409.4 563.235C405.57 564.884 401.686 566.442 397.765 567.926C392.25 570.033 386.643 571.975 380.981 573.734C380.725 573.807 380.468 573.881 380.23 573.972C376.346 575.163 372.443 576.281 368.485 577.325C367.588 577.564 366.708 577.783 365.81 578.003C365.517 578.077 365.206 578.15 364.913 578.223C361.45 579.084 357.968 579.891 354.45 580.624C350.035 581.558 345.582 582.401 341.093 583.115C332.665 584.508 324.09 585.534 315.387 586.157C314.983 586.212 314.562 586.23 314.159 586.248C314.012 586.267 313.866 586.285 313.719 586.285C313.573 586.304 313.426 586.303 313.279 586.322H313.206C312.876 586.358 312.528 586.377 312.198 586.395C310.128 586.523 308.058 586.652 306.024 586.707C305.309 586.762 304.613 586.78 303.898 586.798C296.807 587.055 289.772 587.055 282.791 586.816C281.856 586.78 280.922 586.743 279.987 586.688C277.496 586.578 275.04 586.45 272.567 586.267C271.229 586.175 269.873 586.065 268.536 585.937C267.345 585.845 266.136 585.735 264.945 585.626C263.827 585.516 262.691 585.406 261.573 585.277C261.152 585.241 260.712 585.186 260.291 585.131C256.993 584.783 253.713 584.361 250.433 583.867C248.363 583.573 246.311 583.244 244.258 582.896C243.269 582.731 242.298 582.566 241.308 582.382C239.073 581.979 236.838 581.558 234.621 581.082C233.301 580.825 231.982 580.55 230.663 580.239H230.645C225.863 579.194 221.117 578.04 216.426 576.757C198.69 571.939 181.577 565.489 165.288 557.537C163.822 556.841 162.375 556.108 160.927 555.375C160.085 554.954 159.242 554.514 158.399 554.074C157.043 553.378 155.687 552.663 154.35 551.93C154.313 551.912 154.295 551.912 154.276 551.875C152.92 551.161 151.565 550.41 150.209 549.658C146.801 547.753 143.429 545.774 140.113 543.74C134.213 540.112 128.441 536.283 122.835 532.27C122.138 531.776 121.442 531.281 120.746 530.768C116.33 527.543 112.006 524.208 107.774 520.745C106.399 519.609 105.025 518.455 103.651 517.301C95.5341 510.43 87.802 503.101 80.473 495.369C79.6301 494.507 78.8239 493.646 78.0177 492.767C73.8585 488.278 69.8459 483.66 65.9798 478.915C62.4985 474.664 59.1638 470.322 55.9391 465.888C24.5159 422.72 4.52594 370.482 0.678197 313.279C-2.12516 271.833 3.82968 231.817 16.9486 195.043C21.8774 181.21 27.8322 167.834 34.7215 155.009C80.8944 68.8926 169.044 7.75022 273.721 0.677705C375.869 -6.21158 469.351 40.0162 527.086 115.78C530.787 120.617 534.323 125.564 537.713 130.64C565.27 171.884 582.731 220.677 586.322 273.721C591.269 347.029 568.861 415.867 527.818 470.23Z" fill="url(#paint0_linear_9872_1555)"/>
<path d="M293.674 418.359C292.556 424.259 291.292 430.489 289.936 436.902C289.24 440.218 288.525 443.571 287.774 446.961C284.879 460.08 281.709 473.565 278.595 486.208C278.008 488.608 277.422 490.953 276.836 493.262C273.318 507.297 269.965 519.921 267.326 529.339C265.366 536.32 263.808 541.523 262.837 544.235C262.764 544.418 262.691 544.62 262.617 544.84C261.665 547.24 259.777 550.96 257.23 555.595C255.801 558.179 254.171 561.055 252.375 564.134C249.443 569.209 246.42 574.229 243.305 579.195C242.664 580.257 241.986 581.32 241.308 582.383C239.073 581.98 236.837 581.558 234.62 581.082C233.301 580.825 231.982 580.551 230.663 580.239H230.644C225.862 579.195 221.117 578.04 216.426 576.758C198.69 571.939 181.577 565.489 165.288 557.537C163.822 556.841 162.375 556.108 160.927 555.375C160.084 554.954 159.241 554.514 158.399 554.074C157.043 553.378 155.687 552.664 154.349 551.931C154.313 551.912 154.294 551.912 154.276 551.876C152.92 551.161 151.564 550.41 150.208 549.659C146.8 547.753 143.429 545.774 140.113 543.741C160.267 502.735 180.477 461.729 205.561 423.581C205.781 423.251 205.982 422.94 206.202 422.61C208.163 419.623 210.16 416.655 212.23 413.724C214.502 410.499 216.866 407.311 219.303 404.232C223.737 398.644 228.501 393.367 233.723 388.622C237.241 385.415 240.997 382.447 244.991 379.809C247.904 377.885 252.705 375.374 258.293 373.102C260.107 372.351 262.013 371.637 263.973 370.977C276.634 366.635 291.255 364.527 297.467 372.425C300.362 376.089 298.145 394.65 293.674 418.359Z" fill="#97F8C0"/>
<path d="M406.01 371.728L396.372 394.027L389.263 410.444L380.56 430.58L366.378 463.359L352.435 495.607L323.082 563.492L316.486 578.737L313.206 586.322C312.876 586.359 312.528 586.377 312.198 586.395C310.128 586.524 308.057 586.652 306.023 586.707C305.309 586.762 304.613 586.78 303.898 586.799C296.807 587.055 289.771 587.055 282.79 586.817C281.856 586.78 280.922 586.744 279.987 586.689C277.495 586.579 275.04 586.45 272.566 586.267C271.229 586.176 269.873 586.066 268.536 585.937C267.345 585.846 266.135 585.736 264.944 585.626L262.617 544.84L258.788 477.834L256.974 446.154L254.464 402.309L253.016 377.042L258.293 373.102L263.918 368.907L348.843 305.529L403.921 369.31L406.01 371.728Z" fill="#DEF2FF"/>
<path d="M379.167 424.094C381.531 434.575 383.876 445.531 381.183 455.939C377.995 468.251 368.32 477.633 359.8 487.069C354.707 492.712 349.888 498.594 345.362 504.695C346.351 503.357 343.017 494.618 342.54 492.859C341.423 488.754 340.158 484.705 338.748 480.692C335.999 472.814 331.932 465.521 329 457.771C325.958 449.709 336.219 450.643 341.661 449.049C348.587 447.016 355.22 443.974 361.303 440.09C368.064 435.765 374.165 430.36 379.185 424.076L379.167 424.094Z" fill="white"/>
<path d="M308.845 452.146C303.751 461.509 295.195 468.691 290.358 478.201C286.858 485.108 285.264 493.28 279.694 498.649C273.538 487.417 268.206 475.745 263.735 463.744C260.034 453.832 256.901 443.351 257.89 432.816C258.22 429.353 259.026 425.853 260.858 422.903C263.02 419.422 268.151 413.485 272.145 417.113C276.176 420.778 279.254 425.945 282.992 429.957C290.761 438.276 299.427 445.733 308.827 452.146H308.845Z" fill="white"/>
<path d="M321.469 553.836C321.653 558.802 320.773 564.078 319.362 569.465C319.161 570.253 318.941 571.041 318.703 571.847V571.902C318.025 574.174 317.274 576.464 316.486 578.736C315.606 581.265 314.672 583.794 313.719 586.285C313.572 586.304 313.426 586.304 313.279 586.322H313.206C312.876 586.359 312.528 586.377 312.198 586.395C310.128 586.524 308.057 586.652 306.023 586.707C305.309 586.762 304.613 586.78 303.898 586.798C296.807 587.055 289.771 587.055 282.79 586.817C281.856 586.78 280.922 586.743 279.987 586.689C277.495 586.579 275.04 586.45 272.566 586.267C272.805 584.142 273.061 582.016 273.318 579.891C275.15 564.555 278.76 553.964 284.604 539.874C286.583 535.074 287.536 529.907 289.387 525.051C290.742 521.515 292.923 517.686 295.854 514.919C296.441 514.351 297.082 513.82 297.742 513.362C298.053 513.142 298.365 512.94 298.694 512.739C301.736 510.925 306.866 511.291 310.054 513.398C310.714 513.82 311.3 514.333 311.758 514.919C311.887 515.066 311.997 515.231 312.107 515.395C313.059 516.806 313.517 518.51 313.921 520.159C314.672 523.036 315.405 525.931 316.119 528.807C317.127 532.838 318.153 536.851 319.161 540.882C320.223 545.133 321.304 549.439 321.469 553.836Z" fill="#FF7765"/>
<path d="M289.716 490.147C288.947 486.519 289.442 482.323 292.153 479.795C293.876 478.182 296.276 477.449 298.621 477.156C301.571 476.79 304.576 477.065 307.526 477.321L324.181 478.805C325.775 478.952 327.424 479.098 328.817 479.886C331.437 481.352 332.5 484.76 332.023 487.728C331.547 490.697 329.861 493.317 328.084 495.754C325.885 498.777 323.485 501.654 321.085 504.548C316.999 509.477 308.149 524.3 300.398 517.154C297.064 514.076 296.367 509.038 295.158 504.915C293.692 499.876 290.797 495.277 289.698 490.147H289.716Z" fill="#FF3932"/>
<path d="M260.29 585.131C256.992 584.783 253.713 584.362 250.433 583.867C248.362 583.574 246.31 583.244 244.258 582.896C243.269 582.731 242.298 582.566 241.308 582.383C239.073 581.98 236.837 581.558 234.62 581.082C233.301 580.825 231.982 580.55 230.663 580.239L230.828 577.271L232.916 539.013L237.131 461.875L238.413 438.404L240.722 396.28L245.486 442.252L248.491 471.183L257.23 555.595L260.29 585.131Z" fill="#61EBA9"/>
<path d="M264.944 585.626C263.827 585.516 262.691 585.406 261.573 585.278C261.151 585.241 260.712 585.186 260.29 585.131C256.992 584.783 253.713 584.362 250.433 583.867C248.362 583.574 246.31 583.244 244.258 582.896L243.305 579.195L232.916 539.013L213.091 462.407L223.37 447.584L232.642 434.227L238.926 425.157L219.303 404.232L206.605 390.692L223.627 379.772L263.607 354.102L263.918 368.907L263.973 370.977L264.743 407.622L264.963 418.011L265.586 447.565L266.062 469.736L266.318 481.664L267.326 529.339L268.535 585.937C267.345 585.846 266.135 585.736 264.944 585.626Z" fill="#CAFBDA"/>
<path d="M234.62 581.082C233.301 580.825 231.982 580.55 230.663 580.239L230.828 577.271C231.652 570.51 232.055 545.316 233.191 540.094C233.484 547.442 234.309 573.716 234.62 581.082Z" fill="#39D89C"/>
<path d="M315.386 586.157C314.983 586.212 314.562 586.23 314.159 586.249L317.951 577.674V577.601L356.172 491.155L370.024 459.823L381.256 434.355L392.598 408.703L399.927 392.103L410.206 368.852L420.778 373.212L436.59 379.735L475.727 395.859L476.79 396.299L480.986 519.316C478.127 521.698 475.232 524.007 472.282 526.279C471.055 527.232 469.809 528.166 468.581 529.082C467.464 529.907 466.364 530.731 465.247 531.538C462.681 533.388 460.08 535.202 457.441 536.979C453.41 539.691 449.324 542.33 445.147 544.84C437.396 549.53 429.408 553.873 421.199 557.831C417.681 559.553 414.127 561.184 410.517 562.741C410.151 562.906 409.766 563.071 409.399 563.236C405.57 564.885 401.686 566.442 397.765 567.926C392.249 570.033 386.643 571.976 380.981 573.734C380.725 573.808 380.468 573.881 380.23 573.973C376.345 575.164 372.443 576.281 368.485 577.326C367.587 577.564 366.708 577.784 365.81 578.004C365.517 578.077 365.205 578.15 364.912 578.223C361.449 579.085 357.968 579.891 354.45 580.624C350.034 581.558 345.582 582.401 341.093 583.116C332.664 584.508 324.09 585.534 315.386 586.157Z" fill="#61EBA9"/>
<path d="M509.111 463.158C509.074 472.282 508.726 482.671 508.14 493.665C507.315 494.563 506.472 495.46 505.611 496.358C497.861 504.475 489.634 512.134 480.986 519.316C478.127 521.698 475.232 524.007 472.282 526.279C471.055 527.232 469.809 528.166 468.581 529.082C467.464 529.907 466.364 530.731 465.247 531.538C462.681 533.388 460.08 535.202 457.441 536.979C453.41 539.691 449.324 542.33 445.147 544.84C437.396 549.53 429.408 553.873 421.199 557.831C424.241 536.998 426.989 505.208 426.11 480.949C425.908 475.654 426.11 470.359 426.696 465.137C426.714 464.953 426.733 464.789 426.751 464.624C429.078 444.469 437.158 425.23 450.735 409.912C458.486 401.173 467.189 394.833 475.727 395.859C479.282 396.299 482.818 398.021 486.244 401.411C487.307 402.437 488.461 403.774 489.671 405.314C502.643 421.694 509.184 442.233 509.111 463.158Z" fill="#97F8C0"/>
<path d="M426.806 464.422L426.696 465.137L410.517 562.741C410.151 562.906 409.766 563.071 409.399 563.236C405.57 564.885 401.686 566.442 397.765 567.926L426.751 464.624L426.806 464.422Z" fill="#39D89C"/>
<path d="M414.035 440.878L415.318 476.057L341.093 583.116C332.664 584.508 324.09 585.534 315.386 586.157C314.983 586.212 314.562 586.23 314.159 586.249C314.012 586.267 313.866 586.285 313.719 586.285C313.572 586.304 313.426 586.304 313.279 586.322H313.206C312.876 586.359 312.528 586.377 312.198 586.395L319.362 569.465L328.78 547.167V547.112L348.422 500.664L362.823 466.584L379.717 426.604L385.782 412.258L392.689 395.877L403.921 369.31L411.506 351.354L436.59 379.735L450.753 395.749L414.035 440.878Z" fill="#CAFBDA"/>
<path d="M212.926 265.238C215.95 265.934 218.79 266.264 221.428 266.172C224.561 248.582 226.394 218.222 219.211 195.264C211.259 169.832 179.634 151.509 174.577 156.438C158.49 172.141 163.712 215.51 170.986 226.669C170.986 226.669 176.739 235.115 184.197 245.339C191.269 254.995 201.273 262.544 212.926 265.238Z" fill="url(#paint1_linear_9872_1555)"/>
<path d="M200.98 242.957C199.478 228.409 202.849 215.473 196.18 201.493C190.261 189.071 182.951 177.93 174.687 166.955C173.331 165.16 172.012 163.346 170.675 161.55C159.498 179.983 164.372 216.573 170.95 226.687C170.95 226.687 176.703 235.133 184.16 245.357C189.785 253.035 197.316 259.264 206.001 262.892C203.38 256.424 201.64 249.682 200.944 242.957H200.98Z" fill="white"/>
<path d="M420.778 373.212C420.778 373.212 385.873 289.661 374.861 273.153C360.716 251.935 353.369 216.243 269.415 197.847C238.212 191.013 161.019 218.313 155.155 226.339C149.292 234.346 144.895 254.207 131.739 258.403C118.584 262.599 67.7752 257.249 66.1078 270.643C64.4405 284.036 73.785 325.995 88.1315 327.791C102.478 329.568 173.167 362.659 176.41 367.917C177.289 369.365 181.76 377.94 187.99 389.574C200.87 402.254 213.678 414.951 226.155 428.18C258.165 462.15 302.927 444.505 341.331 433.274C351.17 430.397 400.678 405.039 408.007 400.165L420.796 373.231L420.778 373.212Z" fill="url(#paint2_linear_9872_1555)"/>
<path d="M418.671 377.646C398.626 402.767 315.588 423.215 300.105 419.898C264.083 412.203 217.251 385.47 205.836 353.644C199.551 336.091 192.937 316.742 195.74 297.778C197.719 284.238 207.595 261.042 196.913 249.26C195.483 247.684 194.311 246.072 193.358 244.46C177.766 244.148 162.576 241.785 151.125 233.649C146.745 242.866 141.798 255.178 131.739 258.385C118.584 262.581 67.7752 257.231 66.1078 270.624C64.4405 284.018 73.785 325.977 88.1315 327.772C102.478 329.55 173.167 362.64 176.41 367.899C179.634 373.157 212.175 461.564 271.595 483.881C372.461 521.772 418.671 377.665 418.671 377.665V377.646Z" fill="white"/>
<path d="M150.593 263.149C150.593 263.149 160.927 254.226 165.05 252.32C169.172 250.396 182.035 264.156 182.035 264.156C182.035 264.156 164.702 274.637 150.593 263.149Z" fill="#2E312A"/>
<path d="M66.1078 270.606C65.4115 276.176 66.6392 286.657 69.3142 297.155C76.2585 293.967 83.1661 288.672 87.8384 283.487C91.9793 278.906 95.0941 264.926 92.0159 261.225C78.5305 262.178 66.8773 264.321 66.1078 270.606Z" fill="#14192C"/>
<path d="M164.188 325.574C162.814 323.686 159.608 324.309 158.435 326.893C156.841 331.217 150.85 333.855 144.107 334.24C142.146 334.35 114.424 330.283 105.721 328.267C96.3034 326.105 87.0505 322.734 78.0541 319.161C81.004 323.925 84.3937 327.296 88.1498 327.754C91.3196 328.157 97.3478 330.136 104.713 332.958C117.851 335.101 130.585 337.227 136.173 340.048C148.962 346.498 170.436 334.112 164.207 325.574H164.188Z" fill="#14192C"/>
<path d="M274.71 259.356C277.733 260.052 280.573 260.382 283.212 260.29C286.345 242.701 288.177 212.34 280.995 189.382C273.043 163.95 241.418 145.628 236.361 150.557C220.274 166.259 225.496 209.628 232.77 220.787C232.77 220.787 238.523 229.234 245.98 239.458C253.053 249.114 263.057 256.663 274.71 259.356Z" fill="url(#paint3_linear_9872_1555)"/>
<path d="M262.764 237.057C261.261 222.509 264.633 209.573 257.963 195.593C252.045 183.171 244.734 172.031 236.471 161.055C235.115 159.26 233.796 157.446 232.458 155.65C221.282 174.083 226.155 210.673 232.733 220.787C232.733 220.787 238.486 229.234 245.944 239.458C251.569 247.135 259.099 253.364 267.784 256.992C265.164 250.524 263.423 243.782 262.727 237.057H262.764Z" fill="white"/>
<path d="M173.79 261.005C174.028 259.154 173.661 257.469 173.075 255.893C171.151 254.391 169.264 253.181 167.67 252.577C166.772 252.503 165.819 252.467 164.793 252.467C162.503 253.603 158.6 256.571 155.449 259.118C155.174 262.233 156.218 265.054 158.069 267.106C162.155 268.462 166.167 268.646 169.759 268.151C171.866 266.502 173.423 264.01 173.79 260.987V261.005Z" fill="#221316"/>
<path d="M164.005 260.987C165.655 260.987 166.992 259.649 166.992 258C166.992 256.351 165.655 255.013 164.005 255.013C162.356 255.013 161.019 256.351 161.019 258C161.019 259.649 162.356 260.987 164.005 260.987Z" fill="#DAD9D9"/>
<defs>
<linearGradient id="paint0_linear_9872_1555" x1="169.429" y1="27.447" x2="417.571" y2="559.571" gradientUnits="userSpaceOnUse">
<stop stop-color="#DB242D"/>
<stop offset="1" stop-color="#FFE5D6"/>
</linearGradient>
<linearGradient id="paint1_linear_9872_1555" x1="162.847" y1="208.88" x2="225.682" y2="212.481" gradientUnits="userSpaceOnUse">
<stop stop-color="#FEDF89"/>
<stop offset="1" stop-color="#F79009"/>
</linearGradient>
<linearGradient id="paint2_linear_9872_1555" x1="63.7386" y1="310.783" x2="423.151" y2="331.381" gradientUnits="userSpaceOnUse">
<stop stop-color="#FEDF89"/>
<stop offset="1" stop-color="#F79009"/>
</linearGradient>
<linearGradient id="paint3_linear_9872_1555" x1="224.647" y1="202.988" x2="287.464" y2="206.588" gradientUnits="userSpaceOnUse">
<stop stop-color="#FEDF89"/>
<stop offset="1" stop-color="#F79009"/>
</linearGradient>
</defs>
</svg>
