<svg width="587" height="587" viewBox="0 0 587 587" fill="none" xmlns="http://www.w3.org/2000/svg">
<path d="M527.818 470.245C526.298 472.279 524.74 474.294 523.146 476.273C518.382 482.283 513.362 488.073 508.14 493.68C507.315 494.578 506.473 495.476 505.611 496.374C497.861 504.491 489.634 512.15 480.986 519.332C478.128 521.714 475.233 524.023 472.283 526.295C471.055 527.248 469.809 528.183 468.582 529.099C467.464 529.923 466.365 530.748 465.247 531.554C462.682 533.405 460.08 535.219 457.441 536.996C453.52 539.634 449.544 542.2 445.477 544.655C445.367 544.728 445.257 544.783 445.147 544.857C437.397 549.547 429.408 553.89 421.199 557.848C421.035 557.939 420.851 558.013 420.686 558.086C417.333 559.735 413.944 561.274 410.517 562.758C410.151 562.923 409.766 563.088 409.4 563.253C405.57 564.902 401.686 566.46 397.765 567.944C392.25 570.051 386.643 571.993 380.981 573.752C380.725 573.825 380.468 573.899 380.23 573.99C376.346 575.181 372.443 576.299 368.485 577.344C367.588 577.582 366.708 577.802 365.81 578.021C365.517 578.095 365.206 578.168 364.913 578.241C361.45 579.102 357.968 579.909 354.45 580.642C350.035 581.576 345.582 582.419 341.093 583.134C332.665 584.526 324.09 585.552 315.387 586.175C314.984 586.23 314.562 586.249 314.159 586.267C314.012 586.285 313.866 586.304 313.719 586.304C313.573 586.322 313.426 586.322 313.279 586.34H313.206C312.876 586.377 312.528 586.395 312.198 586.413C310.128 586.542 308.058 586.67 306.024 586.725C305.309 586.78 304.613 586.798 303.898 586.817C298.273 587.018 292.685 587.055 287.133 586.945C285.686 586.926 284.238 586.89 282.791 586.835C281.856 586.798 280.922 586.762 279.987 586.707C278.851 586.652 277.734 586.597 276.616 586.542C275.26 586.468 273.923 586.377 272.567 586.285C271.229 586.194 269.873 586.084 268.536 585.955C267.345 585.864 266.136 585.754 264.945 585.644C263.827 585.534 262.691 585.424 261.573 585.296C261.152 585.259 260.712 585.204 260.291 585.149C256.993 584.801 253.713 584.38 250.433 583.885C248.363 583.592 246.311 583.262 244.258 582.914C243.269 582.749 242.298 582.584 241.308 582.401C239.073 581.998 236.838 581.576 234.621 581.1C233.302 580.843 231.982 580.568 230.663 580.257H230.645C225.863 579.212 221.117 578.058 216.426 576.775C201.274 572.653 186.597 567.357 172.471 560.944C170.052 559.845 167.67 558.709 165.288 557.555C163.822 556.858 162.375 556.125 160.927 555.392C160.085 554.971 159.242 554.531 158.399 554.091C157.043 553.395 155.687 552.681 154.35 551.948C154.313 551.929 154.295 551.929 154.276 551.893C152.92 551.178 151.565 550.427 150.209 549.676C146.801 547.77 143.429 545.791 140.113 543.757C134.213 540.129 128.441 536.3 122.835 532.287C122.139 531.792 121.442 531.297 120.746 530.784C116.33 527.56 112.006 524.225 107.774 520.762C106.399 519.626 105.025 518.471 103.651 517.317C95.5341 510.446 87.802 503.116 80.473 495.384C79.6301 494.523 78.824 493.662 78.0178 492.782C77.7796 492.526 77.5414 492.269 77.3032 491.994C73.4005 487.762 69.626 483.401 65.9798 478.93C62.4985 474.679 59.1638 470.336 55.9391 465.902C52.641 461.376 49.4712 456.741 46.4297 452.013C20.5032 411.721 4.12285 364.484 0.678212 313.289C-2.12514 271.842 3.82969 231.824 16.9487 195.05C21.8774 181.216 27.8323 167.84 34.7215 155.014C80.8944 68.8948 169.044 7.75046 273.721 0.677727C375.869 -6.21177 469.351 40.0175 527.086 115.784C530.787 120.621 534.323 125.568 537.713 130.644C565.27 171.889 582.731 220.684 586.322 273.729C591.269 347.04 568.861 415.88 527.818 470.245Z" fill="url(#paint0_linear_9872_1586)"/>
<path d="M523.146 476.273C518.382 482.283 513.362 488.073 508.14 493.68C507.315 494.578 506.472 495.476 505.611 496.374C497.861 504.491 489.634 512.15 480.986 519.333C478.127 521.715 475.232 524.023 472.282 526.296C471.055 527.248 469.809 528.183 468.581 529.099C467.464 529.923 466.364 530.748 465.247 531.554C462.681 533.405 460.08 535.219 457.441 536.996C453.52 539.635 449.544 542.2 445.477 544.655C445.367 544.729 445.257 544.784 445.147 544.857C437.396 549.548 429.408 553.89 421.199 557.848C421.034 557.94 420.851 558.013 420.686 558.086L337.135 524.225C318.904 516.841 304.686 502.127 297.907 483.804C297.32 482.247 296.807 480.671 296.331 479.058C294.572 473.03 293.674 467.02 293.528 461.102C293.454 458.427 293.546 455.788 293.784 453.168C295.03 439.609 300.234 426.911 308.387 416.485C317.054 405.399 329.037 396.879 343.127 392.647C347.213 391.419 351.482 390.539 355.898 390.081C357.675 389.898 359.47 389.77 361.303 389.715L366.488 389.568H366.506L374.678 389.33C383.748 389.074 392.708 390.558 401.099 393.691C402.877 394.332 404.617 395.065 406.321 395.871C409.949 397.557 413.43 399.573 416.747 401.9L523.146 476.273Z" fill="#004AA0"/>
<path d="M376.639 377.145L344.519 416.485H194.732L178.114 376.229L369.951 375.807L376.639 377.145Z" fill="#002B59"/>
<path d="M200.925 201.499C200.229 179.054 195.428 156.754 185.296 136.709C180.276 126.778 174.394 117.341 168.091 108.18C159.718 96.0132 170.162 79.5956 184.618 82.6739C225.917 91.524 265.054 113.402 288.984 147.776C285.594 150.085 281.398 150.744 277.349 151.386C257.542 154.611 200.705 198.275 200.962 201.829V201.499H200.925Z" fill="url(#paint1_linear_9872_1586)"/>
<path d="M182.291 95.7384C206.953 103.892 228.684 120.621 242.902 142.352C243.232 142.866 243.58 143.452 243.47 144.038C243.305 144.973 242.188 145.357 241.272 145.559C235.848 146.75 230.333 147.849 225.294 150.158C221.666 151.826 219.431 154.501 216.298 156.718C212.102 159.668 212.267 158 211.296 153.475C209.775 146.329 207.631 139.311 204.92 132.55C202.19 125.77 198.891 119.229 195.062 112.999C192.662 109.114 186.744 97.2226 182.291 95.7567V95.7384Z" fill="white"/>
<path d="M400.238 252.676C411.653 233.345 426.604 216.103 445.147 203.442C454.326 197.157 464.019 191.715 473.968 186.713C487.16 180.098 485.914 160.676 471.788 156.406C431.332 144.276 386.496 144.588 348.99 163.186C350.841 166.832 354.212 169.434 357.437 171.963C373.249 184.331 402.015 249.964 400.092 252.969L400.256 252.694L400.238 252.676Z" fill="url(#paint2_linear_9872_1586)"/>
<path d="M467.519 168.958C441.977 164.23 414.878 168.408 391.956 180.611C391.425 180.904 390.839 181.234 390.637 181.82C390.344 182.718 391.113 183.579 391.828 184.202C396.006 187.867 400.311 191.477 403.609 195.929C405.991 199.136 406.651 202.562 408.337 206.007C410.59 210.606 411.25 209.085 414.273 205.567C419.055 200.034 424.296 194.921 429.957 190.304C435.601 185.668 441.647 181.527 448.005 177.918C451.981 175.664 462.883 168.096 467.5 168.958H467.519Z" fill="white"/>
<path d="M131.501 259.914C130.109 261.874 128.698 263.945 127.397 266.034C130.402 266.363 133.498 265.942 136.357 264.696C140.204 271.201 144.712 277.339 149.732 283.147C151.949 285.713 154.184 288.168 156.566 290.532C160.799 295.149 165.196 299.492 169.539 303.688C180.404 313.875 192.918 323.605 197.114 337.824C200.027 347.517 198.617 358.199 194.531 367.654C191.141 375.734 185.846 382.99 180.166 389.586C178.7 391.419 177.601 393.563 177.436 395.945C176.776 405.381 181.577 418.537 187.55 425.83C190.646 429.714 194.714 432.756 198.855 435.578C204.48 439.462 219.669 500.845 226.1 503.373C242.224 509.841 340.067 466.415 339.939 465.609C337.886 446.077 338.509 395.432 347.891 378.281C352.068 370.622 357.986 360.434 365.26 355.341C372.113 350.577 385.287 350.87 393.66 349.257C394.357 349.111 395.163 348.982 395.877 348.836C400.623 347.956 405.387 347.077 410.242 346.234C410.719 346.124 411.048 346.106 411.507 346.014C413.485 345.629 415.776 344.896 417.864 344.878C419.972 344.878 426.11 346.326 426.861 348.964C426.128 346.234 425.523 343.43 425.157 340.572C425.083 340.004 425.193 339.143 425.761 339.07C426.091 339.051 426.384 339.235 426.659 339.418C427.557 340.206 428.546 341.122 429.554 341.928C428.528 338.575 427.52 335.222 426.586 331.997C429.243 333.683 431.881 335.46 434.52 337.237C432.467 332.29 430.8 327.215 429.609 321.956C431.441 322.982 433.585 323.641 435.619 323.935C434.685 320.71 433.64 317.467 432.724 314.132C435.747 314.791 438.606 316.202 440.969 318.126C437.928 311.053 432.687 305.612 429.591 298.74C420.833 279.922 415.171 260.243 412.258 240.161C411.507 235.324 410.993 230.45 410.609 225.484L410.389 222.443L409.216 206.355C408.685 192.961 402.4 180.41 391.81 172.182L369.969 154.867C368.962 154.061 367.954 153.255 366.928 152.54C339.994 132.256 306.628 122.82 272.878 125.642L265.769 126.246L250.763 127.474C223.828 127.401 210.013 162.746 210.013 162.746L209.665 163.204C207.21 166.777 204.663 170.204 202.025 173.612C198.067 178.669 193.871 183.451 189.474 188.069C174.687 203.936 157.373 217.606 138.738 229.057C137.181 229.974 135.825 230.963 134.231 231.989C135.917 232.319 137.566 232.74 139.05 233.455C137.474 236.588 135.33 239.355 132.637 241.645C134.653 242.378 136.998 242.323 138.995 241.407C135.184 244.632 131.446 247.985 127.653 251.192C129.541 252.016 131.593 252.639 133.535 252.804C130.328 254.527 127.507 256.89 125.161 259.602C127.269 260.024 129.357 260.024 131.501 259.895V259.914Z" fill="url(#paint3_linear_9872_1586)"/>
<path d="M415.226 384.841L369.951 375.807L273.812 473.451L415.226 384.841Z" fill="#004AA0"/>
<path d="M297.98 252.511C298.786 259.675 296.972 256.011 302.652 260.115C317.658 270.926 330.869 278.841 343.676 293.06C353.131 303.559 362.512 313.912 371.875 324.374C379.534 332.858 387.266 341.47 395.859 348.872C400.605 347.993 405.368 347.113 410.224 346.271C410.7 346.161 411.03 346.142 411.488 346.051C413.467 345.666 415.757 344.933 417.846 344.915C419.953 344.915 426.091 346.362 426.842 349.001C426.11 346.271 425.505 343.467 425.138 340.609C425.065 340.041 425.175 339.18 425.743 339.106C426.073 339.088 426.366 339.271 426.641 339.454C427.539 340.242 428.528 341.158 429.536 341.965C428.51 338.612 427.502 335.258 426.568 332.034C429.224 333.719 431.863 335.497 434.501 337.274C432.449 332.327 430.782 327.251 429.591 321.992C431.423 323.019 433.567 323.678 435.601 323.971C434.666 320.746 433.622 317.503 432.706 314.169C435.729 314.828 438.587 316.239 440.951 318.163C437.909 311.09 432.669 305.648 429.573 298.777C420.814 279.959 415.153 260.28 412.239 240.198C411.488 235.361 411.873 240.326 411.488 235.361C411.488 235.361 374.898 198.458 354.597 191.495C348.697 189.535 342.394 187.812 336.292 188.783C325.262 190.469 317.328 200.254 311.942 210.038C306.976 219.035 303.22 228.563 300.692 238.402C299.629 242.543 297.522 248.187 297.962 252.493L297.98 252.511Z" fill="white"/>
<path d="M131.501 259.914C130.109 261.874 128.698 263.945 127.397 266.034C130.402 266.363 133.498 265.942 136.357 264.696C140.204 271.201 144.712 277.339 149.732 283.147C151.949 285.713 154.184 288.168 156.566 290.532C170.198 288.626 183.446 283.954 196.656 279.391C209.995 274.755 223.206 270.193 236.453 265.521C254.519 259.217 269.91 258.649 288.269 256.396C295.232 255.534 291.97 257.898 296.038 251.98C298.493 248.407 299.372 242.452 300.435 238.311C302.964 228.471 304.246 218.302 304.228 208.023C304.228 196.864 302.084 184.496 293.234 177.698C288.251 173.868 282.003 172.384 275.883 171.248C251.459 166.96 222.839 172.109 198.617 177.826C198.617 177.826 193.889 183.451 189.492 188.069C174.706 203.937 157.391 217.606 138.757 229.058C137.199 229.974 135.844 230.963 134.249 231.989C135.935 232.319 137.584 232.741 139.068 233.455C137.493 236.588 135.349 239.355 132.655 241.646C134.671 242.378 137.016 242.324 139.013 241.407C135.202 244.632 131.464 247.985 127.672 251.192C129.559 252.016 131.611 252.639 133.553 252.804C130.347 254.527 127.525 256.89 125.18 259.602C127.287 260.024 129.376 260.024 131.519 259.895L131.501 259.914Z" fill="white"/>
<path d="M130.255 388.176L178.114 376.229L273.812 473.452L130.255 388.176Z" fill="#004AA0"/>
<path d="M445.477 544.655C445.367 544.729 445.257 544.783 445.147 544.857C437.396 549.548 429.408 553.89 421.199 557.848C421.034 557.94 420.851 558.013 420.686 558.086C417.333 559.735 413.943 561.274 410.517 562.759C410.151 562.923 409.766 563.088 409.399 563.253C405.57 564.902 401.686 566.46 397.765 567.944C392.249 570.051 386.643 571.993 380.981 573.752C380.725 573.826 380.468 573.899 380.23 573.991C376.346 575.182 372.443 576.299 368.485 577.344C367.587 577.582 366.708 577.802 365.81 578.022C365.517 578.095 365.205 578.168 364.912 578.242C361.449 579.103 357.968 579.909 354.45 580.642C350.034 581.576 345.582 582.419 341.093 583.134C332.665 584.526 324.09 585.553 315.386 586.175C314.983 586.23 314.562 586.249 314.159 586.267C314.012 586.285 313.866 586.304 313.719 586.304C313.572 586.322 313.426 586.322 313.279 586.34H313.206C312.876 586.377 312.528 586.395 312.198 586.414C310.128 586.542 308.057 586.67 306.023 586.725C305.309 586.78 304.613 586.798 303.898 586.817C298.273 587.018 292.685 587.055 287.133 586.945C285.685 586.927 284.238 586.89 282.79 586.835C281.856 586.798 280.922 586.762 279.987 586.707C278.851 586.652 277.733 586.597 276.616 586.542C275.26 586.469 273.922 586.377 272.566 586.285C271.229 586.194 269.873 586.084 268.536 585.956C267.345 585.864 266.135 585.754 264.944 585.644C263.827 585.534 262.691 585.424 261.573 585.296C261.152 585.259 260.712 585.204 260.29 585.149C256.992 584.801 253.713 584.38 250.433 583.885C248.362 583.592 246.31 583.262 244.258 582.914C243.269 582.749 242.298 582.584 241.308 582.401C239.073 581.998 236.837 581.576 234.62 581.1C233.301 580.843 231.982 580.569 230.663 580.257H230.644C225.862 579.213 221.117 578.058 216.426 576.776C201.273 572.653 186.597 567.358 172.47 560.945C170.052 559.845 167.67 558.709 165.288 557.555C163.822 556.858 162.375 556.126 160.927 555.393C160.084 554.971 159.241 554.531 158.399 554.092C157.043 553.395 155.687 552.681 154.349 551.948C154.313 551.93 154.294 551.93 154.276 551.893C152.92 551.178 151.564 550.427 150.208 549.676C146.8 547.77 143.429 545.791 140.113 543.757C134.213 540.129 128.441 536.3 122.834 532.287C122.138 531.792 121.442 531.298 120.746 530.785C116.33 527.56 112.006 524.225 107.773 520.762C106.399 519.626 105.025 518.471 103.651 517.317C95.5339 510.446 87.8017 503.117 80.4727 495.384C79.6299 494.523 78.8237 493.662 78.0175 492.782C77.7793 492.526 77.5411 492.269 77.3029 491.995L68.5997 436.439L68.3615 434.918L144.217 396.476L144.877 396.146L183.171 419.105L268.279 470.135L273.812 473.452L278.668 470.41L293.527 461.102L339.096 432.554L401.099 393.691L404.507 391.565C405.112 392.995 405.735 394.424 406.321 395.871C426.256 443.457 439.412 493.552 445.477 544.655Z" fill="#002B59"/>
<path d="M340.488 209.433C345.875 207.143 351.647 205.476 357.492 205.695C366.305 206.044 374.422 210.643 381.274 216.195C391.608 224.568 399.945 235.397 405.405 247.527C408.74 254.93 410.993 263.45 408.245 271.091C405.497 278.732 398.058 283.99 390.161 285.859C382.264 287.728 373.964 286.665 366.066 284.778C352.948 281.645 340.488 276.24 328.634 269.881C321.671 266.144 306.866 260.408 303.55 252.31C296.697 235.599 328.249 214.637 340.507 209.433H340.488Z" fill="#FFAA01"/>
<path d="M276.707 193.071C273.098 188.472 268.847 184.239 263.607 181.619C255.71 177.679 246.384 177.808 237.699 179.365C224.616 181.729 212.102 187.207 201.475 195.196C194.989 200.07 188.906 206.465 187.641 214.472C186.377 222.498 190.371 230.688 196.381 236.13C202.391 241.572 210.196 244.651 218.02 246.794C231.029 250.367 244.533 251.632 258 251.778C265.897 251.852 281.636 253.959 288.452 248.462C302.506 237.12 284.953 203.552 276.707 193.071Z" fill="#FFAA01"/>
<path d="M280.134 490.62L287.133 586.945C285.685 586.927 284.238 586.89 282.79 586.835C281.856 586.798 280.922 586.762 279.987 586.707C278.851 586.652 277.733 586.597 276.616 586.542L270.001 494.23L268.279 470.172V470.135L268.242 469.64L273.812 473.452L278.668 470.355V470.41L280.134 490.62Z" fill="#004AA0"/>
<path d="M174.193 513.946L172.47 560.945C170.052 559.845 167.67 558.709 165.288 557.555C163.822 556.858 162.375 556.125 160.927 555.393C160.084 554.971 159.241 554.531 158.399 554.092C157.043 553.395 155.687 552.681 154.349 551.948C154.313 551.93 154.294 551.93 154.276 551.893C152.92 551.178 151.564 550.427 150.208 549.676C146.8 547.77 143.429 545.791 140.113 543.757C134.213 540.129 128.441 536.3 122.834 532.287C122.138 531.792 121.442 531.298 120.746 530.785C116.33 527.56 112.006 524.225 107.773 520.762C106.399 519.626 105.025 518.471 103.651 517.317C95.5339 510.446 87.8017 503.117 80.4727 495.384C79.6299 494.523 78.8237 493.662 78.0175 492.782C77.7793 492.526 77.5411 492.269 77.3029 491.995C73.4002 487.762 69.6257 483.401 65.9796 478.93C62.4983 474.679 59.1636 470.337 55.9388 465.902C52.6407 461.377 49.4709 456.741 46.4294 452.013C52.9522 445.179 60.5011 439.993 68.5997 436.439C98.0624 423.448 134.543 431.986 154.349 460.772L161.935 471.784C170.436 484.152 174.742 498.939 174.193 513.946Z" fill="#004AA0"/>
<path d="M325.958 289.102C329.22 303.486 326.581 319.83 313.939 328.314C307.654 332.528 299.611 334.342 291.604 335.277C282.461 336.339 272.915 336.358 263.882 333.829C254.83 331.301 246.31 325.987 241.803 318.529C235.628 308.287 237.937 296.175 241.986 285.749C246.603 273.858 253.639 262.332 265.182 255.205C296.093 236.112 319.82 262.112 325.94 289.084L325.958 289.102Z" fill="white"/>
<path d="M320.865 180.703C321.121 178.247 321.231 175.646 320.132 173.428C319.032 171.211 316.321 169.599 314.049 170.552C312.088 171.358 311.19 173.612 310.549 175.646C306.775 187.721 304.869 200.272 302.964 212.75C301.003 225.576 298.218 237.944 295.195 250.514C298.438 252.676 301.626 239.447 302.615 236.936C305.052 230.817 307.654 224.752 310.109 218.65C315.02 206.447 319.491 193.895 320.846 180.721L320.865 180.703Z" fill="#FFAA01"/>
<path d="M275.938 242.507C274.234 243.973 273.739 246.391 273.629 248.645C273.263 256.359 276.194 263.798 279.071 270.963C280.463 274.426 282.571 278.438 286.29 278.658C288.177 278.768 289.936 277.815 291.585 276.881C298.328 273.088 323.283 261.086 313.664 251.888C309.706 248.114 279.254 239.648 275.919 242.488L275.938 242.507Z" fill="#1D2939"/>
<path d="M267.473 200.418C265.714 197.597 263.314 194.903 260.107 194.042C256.718 193.144 253.016 194.5 250.451 196.9C248.234 198.971 246.86 201.774 245.834 204.651C246.384 204.963 246.988 205.256 247.483 205.567C250.03 207.125 252.283 208.847 253.328 210.716C254.372 212.567 253.987 214.546 251.734 215.645C249.718 216.616 246.585 216.708 243.525 216.543C243.067 227.518 246.787 239.227 258.33 241.755C259.173 241.939 260.052 242.067 260.877 241.865C262.049 241.591 262.965 240.711 263.772 239.831C273.354 229.406 274.948 212.475 267.473 200.455V200.418Z" fill="#1D2939"/>
<path d="M365.48 223.322C365.169 220.006 364.234 216.524 361.742 214.326C359.122 211.999 355.183 211.577 351.83 212.567C348.917 213.428 346.443 215.315 344.244 217.441C344.592 217.954 345.014 218.503 345.325 218.998C346.901 221.527 348.165 224.092 348.257 226.217C348.367 228.343 347.139 229.955 344.629 229.919C342.394 229.882 339.554 228.581 336.879 227.06C331.565 236.68 329.678 248.81 338.876 256.231C339.554 256.762 340.268 257.275 341.111 257.458C342.284 257.733 343.493 257.367 344.611 256.927C357.84 251.87 366.818 237.431 365.499 223.341L365.48 223.322Z" fill="#1D2939"/>
<path d="M247.446 285.987C249.022 286.794 250.524 287.6 252.119 288.15C253.658 288.791 255.27 289.176 256.846 289.469C259.997 289.982 263.094 289.854 266.007 289.029C268.92 288.333 271.687 286.977 274.234 285.291C275.498 284.448 276.762 283.569 277.935 282.579C278.521 282.085 279.089 281.59 279.639 281.059C280.152 280.564 280.775 279.941 281.05 279.574L283.945 275.836L289.442 280.729C289.881 281.132 290.523 281.791 291.036 282.341L292.703 284.064C293.821 285.2 294.92 286.336 296.038 287.38C298.255 289.505 300.453 291.484 302.707 293.079C304.979 294.636 307.196 296.083 309.945 296.908C312.693 297.861 315.991 298.099 320.04 298.044L320.407 298.685C317.292 300.518 313.719 301.892 309.999 301.892C306.28 301.984 302.615 300.884 299.391 299.143C296.148 297.403 293.271 295.039 290.797 292.382C288.306 289.707 286.125 286.812 284.275 283.642L285.246 283.77C282.644 286.226 279.731 288.223 276.597 289.835C273.464 291.448 270.075 292.62 266.538 293.042C263.02 293.482 259.393 293.097 256.04 291.942C252.687 290.77 249.663 288.864 247.007 286.574L247.483 286.024L247.446 285.987Z" fill="#1D2939"/>
<defs>
<linearGradient id="paint0_linear_9872_1586" x1="169.429" y1="27.4478" x2="417.584" y2="559.582" gradientUnits="userSpaceOnUse">
<stop stop-color="#038C8C"/>
<stop offset="1" stop-color="#5BDCC6"/>
</linearGradient>
<linearGradient id="paint1_linear_9872_1586" x1="165.105" y1="142.059" x2="288.965" y2="142.059" gradientUnits="userSpaceOnUse">
<stop stop-color="#FEDF89"/>
<stop offset="1" stop-color="#F79009"/>
</linearGradient>
<linearGradient id="paint2_linear_9872_1586" x1="348.972" y1="200.528" x2="483.166" y2="200.528" gradientUnits="userSpaceOnUse">
<stop stop-color="#FEDF89"/>
<stop offset="1" stop-color="#F79009"/>
</linearGradient>
<linearGradient id="paint3_linear_9872_1586" x1="125.161" y1="314.608" x2="440.951" y2="314.608" gradientUnits="userSpaceOnUse">
<stop stop-color="#FEDF89"/>
<stop offset="1" stop-color="#F79009"/>
</linearGradient>
</defs>
</svg>
