<svg width="583" height="582" viewBox="0 0 583 582" fill="none" xmlns="http://www.w3.org/2000/svg">
<path d="M582.322 310.612C578.931 360.74 563.006 407.063 537.807 446.708C527.929 462.259 516.621 476.767 504.086 490.104C488.069 507.119 470.036 522.194 450.408 534.964C447.824 536.647 445.203 538.293 442.564 539.885C436.553 543.544 430.377 546.983 424.091 550.185C421.379 551.575 418.667 552.911 415.918 554.21C413.48 555.362 411.006 556.478 408.532 557.576C406.663 558.381 404.812 559.186 402.924 559.954C397.115 562.351 391.232 564.583 385.239 566.596C370.707 571.535 355.679 575.359 340.285 577.957C338.599 578.231 336.913 578.506 335.227 578.762C335.172 578.762 335.117 578.78 335.08 578.78C331.763 579.274 328.446 579.713 325.11 580.097C315.581 581.195 305.923 581.817 296.155 581.963C288.128 582.091 280.009 581.872 271.854 581.323C254.389 580.152 237.382 577.444 220.961 573.383C215.024 571.919 209.159 570.255 203.368 568.425C198.145 566.779 192.977 564.986 187.882 563.046C154.876 550.551 124.858 532.256 98.999 509.515C81.3324 493.983 65.6083 476.383 52.175 457.118C15.6322 404.721 -3.95877 340.03 0.677815 271.388C11.5271 111.05 150.533 -10.1539 311.146 0.676774C471.758 11.4891 593.171 150.257 582.322 310.612Z" fill="url(#paint0_linear_9872_1366)"/>
<path d="M342.686 361.911C344.775 368.223 347.011 374.754 349.357 381.432C358.062 406.277 368.141 432.951 377.433 456.588C378.074 458.198 378.697 459.789 379.32 461.363C385.954 478.121 392.094 493.105 396.95 504.521C400.89 513.76 403.988 520.657 405.802 524.224C405.93 524.462 406.058 524.718 406.205 524.993C407.909 528.121 411.172 532.896 415.533 538.824C417.952 542.135 420.72 545.812 423.743 549.746C423.853 549.892 423.963 550.039 424.092 550.185C430.378 546.983 436.554 543.544 442.565 539.885C445.204 538.293 447.824 536.647 450.408 534.964C485.394 512.205 515.302 482.128 537.807 446.709C521.24 422.559 504.178 398.776 486.053 375.815C478.283 365.991 470.366 356.35 462.192 346.891C455.393 339.006 448.356 331.212 440.86 323.949C432.852 316.174 424.367 308.984 415.13 302.91C410.64 299.965 405.985 297.257 401.129 294.897C397.097 292.939 390.738 290.561 383.37 288.512C381.446 287.981 379.503 287.469 377.469 286.993H377.451C376.131 286.682 374.794 286.39 373.437 286.115C366.272 284.652 358.758 283.719 351.831 283.865C341.146 284.066 331.891 286.792 327.548 294.074C324.011 299.946 331.287 327.59 342.704 361.911H342.686Z" fill="#97F8C0"/>
<path d="M170.326 353.807L201.444 399.306L325.111 580.097C328.446 579.713 331.763 579.274 335.08 578.78L335.813 579.988C335.612 579.585 335.428 579.183 335.227 578.762C336.913 578.506 338.599 578.231 340.285 577.957C355.679 575.359 370.707 571.535 385.24 566.596C391.232 564.583 397.115 562.351 402.925 559.955C404.812 559.186 406.663 558.381 408.532 557.576L406.205 524.993L401.752 462.717L394.513 361.289L391.031 312.552L389.601 292.537L382.381 290.872L377.946 289.866L373.749 288.896L351.849 283.865L232.361 256.477L177.968 244L173.588 307.155L173.258 311.893L170.362 353.807H170.326Z" fill="white"/>
<path d="M224.169 379.639C222.794 394.476 221.493 409.972 227.064 423.785C233.662 440.159 248.635 451.337 262.068 462.808C270.095 469.65 277.774 476.895 285.104 484.488C283.491 482.823 286.534 470.218 286.882 467.711C287.706 461.875 288.714 456.076 289.942 450.313C292.343 438.988 296.65 428.249 299.289 417.052C302.056 405.435 288.073 408.527 280.303 407.301C270.406 405.728 260.712 402.746 251.658 398.465C241.561 393.708 232.214 387.36 224.169 379.621V379.639Z" fill="white"/>
<path d="M326.027 405.746C334.714 417.729 347.78 426.072 356.119 438.293C362.167 447.166 365.814 458.125 374.445 464.528C380.915 447.989 386.192 430.993 390.224 413.704C393.56 399.398 396.015 384.432 392.772 370.126C391.709 365.406 389.968 360.759 386.907 357.008C383.315 352.618 375.178 345.354 370.322 351.062C365.429 356.807 362.112 364.473 357.658 370.656C348.44 383.463 337.811 395.281 326.009 405.764L326.027 405.746Z" fill="white"/>
<path d="M308.415 515.608C308.672 518.48 309.203 521.407 309.955 524.371C314.555 542.666 327.291 562.113 335.227 578.762C336.913 578.506 338.599 578.231 340.285 577.957C355.679 575.359 370.707 571.535 385.24 566.596C383.352 558.674 381.391 550.77 379.394 542.885C374.134 522.139 367.28 508.198 356.724 489.848C353.132 483.61 350.914 476.676 347.487 470.327C344.5 464.766 339.735 458.802 333.907 455.728C333.431 455.472 332.954 455.234 332.478 455.033C327.035 452.673 317.963 455.234 314.866 460.357C314.72 460.595 314.591 460.832 314.481 461.07C313.418 463.174 313.107 465.607 312.814 467.949C312.3 472.047 311.824 476.145 311.329 480.243C310.651 485.951 309.973 491.659 309.295 497.386C308.58 503.423 307.847 509.534 308.415 515.608Z" fill="#FF7765"/>
<path d="M340.853 422.376C341.275 417.254 339.845 411.582 335.667 408.564C332.991 406.643 329.564 406.057 326.284 406.094C322.142 406.13 318.073 407.027 314.042 407.905L291.353 412.899C289.191 413.375 286.955 413.887 285.177 415.205C281.824 417.693 280.981 422.559 282.154 426.566C283.326 430.572 286.13 433.884 289.008 436.903C292.581 440.671 296.393 444.221 300.205 447.751C306.711 453.789 321.537 472.633 330.957 461.418C335.007 456.606 335.08 449.526 335.997 443.653C337.114 436.463 340.285 429.621 340.89 422.358L340.853 422.376Z" fill="#FF3932"/>
<path d="M504.086 490.104C488.069 507.119 470.036 522.194 450.408 534.964C447.824 536.647 445.204 538.293 442.565 539.885C436.554 543.544 430.378 546.983 424.092 550.185C421.379 551.575 418.667 552.911 415.918 554.21L415.533 538.824L413.627 463.046L410.805 350.55L409.962 316.814L449.364 412.058L504.086 490.104Z" fill="#61EBA9"/>
<path d="M370.908 262.862L373.126 283.481L373.419 286.115L373.712 288.896L374.042 291.951L380.401 351.008L381.794 363.851L388.099 422.34L392.405 462.387L396.95 504.521L402.925 559.955C404.812 559.186 406.663 558.381 408.532 557.576C411.007 556.479 413.481 555.363 415.918 554.21C418.667 552.911 421.379 551.576 424.092 550.185C430.378 546.983 436.554 543.544 442.565 539.885L451.38 469.614L459.773 402.856L417.567 356.203L440.86 323.949L455.961 303.056L422.424 287.213L401.294 277.224L370.908 262.862Z" fill="#CAFBDA"/>
<path d="M84.723 358.746L98.9993 509.515C124.858 532.256 154.877 550.551 187.882 563.047C192.977 564.986 198.145 566.779 203.368 568.425C209.159 570.255 215.024 571.92 220.962 573.383C237.382 577.445 254.389 580.152 271.854 581.323C280.009 581.872 288.128 582.092 296.155 581.964C305.923 581.817 315.581 581.195 325.111 580.097C328.446 579.713 331.763 579.274 335.08 578.78L267.767 467.803L232.159 409.058L223.124 394.129L173.24 311.893L171.7 309.35L171.59 309.167L123.997 336.335L86.0792 357.978L84.7414 358.746H84.723Z" fill="#61EBA9"/>
<path d="M52.0836 456.442C52.1203 456.661 52.1386 456.881 52.1753 457.118C65.6085 476.383 81.3326 493.983 98.9993 509.515C124.858 532.256 154.877 550.551 187.882 563.046C180.479 535.183 172.433 496.654 169.611 466.174C168.915 458.71 167.668 451.337 165.872 444.111C165.872 443.983 165.817 443.855 165.781 443.745C159.806 419.815 147.876 397.641 130.612 379.987C128.193 377.517 125.664 375.139 123.044 372.852C121.962 371.919 120.881 371.004 119.781 370.107C108.474 360.997 96.6168 355.252 86.0608 357.978C81.241 359.222 76.696 362.204 72.5909 367.455C71.3264 369.065 69.9702 371.095 68.5774 373.419C53.6047 398.263 48.2534 427.682 52.0836 456.442Z" fill="#97F8C0"/>
<path d="M170.326 484.488L181.853 541.001L186.178 562.406C191.969 564.236 203.955 568.864 209.892 570.328L166.88 448.483L170.326 484.488Z" fill="#39D89C"/>
<path d="M155.536 406.094L230.473 442.574L219.349 499.49L296.155 581.963C305.923 581.817 315.581 581.195 325.111 580.097C328.446 579.713 331.763 579.274 335.08 578.78L335.813 579.988C335.612 579.585 335.428 579.183 335.227 578.762C336.913 578.506 338.599 578.231 340.285 577.957L309.955 524.371L284.774 479.877L246.325 411.948L231.792 386.244H231.774L181.651 297.678L173.551 307.155L171.682 309.35L155.536 406.094Z" fill="#CAFBDA"/>
<path d="M407.579 462.863C411.685 462.973 415.79 463.101 419.858 463.32C441.887 464.601 466.352 471.169 477.202 490.36C466.957 472.212 484.679 442.72 486.383 424.187C488.637 399.489 481.27 373.144 491.624 349.581C497.232 336.811 507.678 326.785 514.404 314.564C541.197 265.753 496.078 211.947 465.638 176.967C457.977 168.167 450.115 159.477 443.848 149.653C435.197 136.096 429.809 120.802 423.652 105.946C412.858 79.9308 398.948 54.2629 377.084 36.4619C355.239 18.6609 323.993 10.1537 298.061 21.2404C290.492 24.4787 283.51 29.2719 275.464 31.0283C267.859 32.6931 259.96 31.5222 252.208 30.699C229.96 28.3572 206.979 29.1256 185.921 36.6997C164.864 44.2738 145.86 59.2391 136.77 79.6563C131.419 91.6761 129.568 105.16 123.044 116.576C117.161 126.857 107.704 135.072 103.673 146.213C95.8838 167.765 110.966 190.853 110.49 213.759C109.94 240.25 88.7548 266.814 99.6957 290.963C104.479 301.556 114.705 308.929 119.635 319.449C124.675 330.206 123.593 342.921 127.79 354.026C137.32 379.164 163.508 381.048 184.107 391.476C210.167 404.648 238.885 412.552 268.024 414.491C277.773 415.15 287.706 415.15 297.071 417.985C319.008 424.59 333.852 445.208 354.671 454.795C371.018 462.314 389.4 462.387 407.579 462.863Z" fill="url(#paint1_linear_9872_1366)"/>
<path d="M219.862 230.517C224.682 247.988 236.026 262.936 248.286 276.346C260.528 289.738 273.943 302.251 284.206 317.217C290.474 326.328 295.532 336.445 303.376 344.184C319.081 359.661 342.887 363.155 364.952 364.052C374.995 364.473 385.185 364.436 394.714 361.253C404.171 358.033 412.894 351.117 415.826 341.549C419.803 328.523 412.289 314.235 415.57 300.971C418.594 288.768 430.982 279.602 431.642 266.759C432.119 258.051 427.867 246.031 424.623 237.945C416.633 218.113 401.55 200.714 399.241 178.833C398.416 170.509 399.534 162.167 399.021 153.824C398.581 146.927 396.785 139.682 392.479 134.505C391.599 133.352 390.591 132.346 389.491 131.431C380.823 124.497 368.013 125.998 357.75 130.352C355.221 131.449 352.417 132.712 349.76 132.017C347.451 131.376 345.783 129.547 344.28 127.79C336.693 119.119 328.666 110.593 318.715 104.702C308.818 98.8295 296.668 95.8291 285.562 98.9027C283.601 99.4881 281.64 100.22 279.954 101.171C271.561 105.214 264.89 112.551 260.382 120.765C254.92 130.718 252.281 142.024 250.009 153.202C249.038 158.032 248.03 163.045 245.299 167.198C241.89 172.522 236.118 175.76 231.518 180.078C218.231 192.482 215.17 213.082 219.899 230.59L219.862 230.517Z" fill="#FEEFC7"/>
<path d="M168.163 63.0994C171.645 59.6234 176.722 58.0866 181.633 58.0317C186.563 57.9768 191.383 59.2575 196.093 60.7394C210.827 65.3863 228.255 75.3754 228.604 90.2309L219.385 87.4867L222.446 95.5547L210.552 96.2317L212.99 100.988L202.122 103.257L202.69 109.898L193.655 110.063L193.289 114.929C183.649 109.77 175.31 102.196 169.391 93.0117C166.459 88.4746 164.076 83.4435 163.49 78.0647C162.922 72.686 164.351 66.9231 168.181 63.0994H168.163Z" fill="#FEEFC7"/>
<path d="M440.695 153.257L433.511 152.818L434.171 147.567L425.613 145.409L427.702 141.713L418.264 140.78L420.958 134.468L416.853 135.511C420.188 125.87 432.65 119.704 443.279 116.832C447.128 115.789 451.068 114.911 455.045 115.112C459.022 115.313 463.072 116.722 465.766 119.649C468.735 122.869 469.706 127.571 469.046 131.889C468.405 136.206 466.316 140.194 463.787 143.762C458.05 151.903 449.877 158.27 440.64 162.02L440.677 153.239L440.695 153.257Z" fill="#FEEFC7"/>
<path d="M279.936 101.116L344.61 189.152L345.435 238.146L350.823 250.202L397.72 260.027L395.228 252.709L373.327 187.706L392.497 134.45C391.617 133.297 390.609 132.291 389.51 131.376C380.841 124.442 368.031 125.943 357.768 130.297C355.239 131.395 352.435 132.657 349.778 131.962C347.469 131.321 345.801 129.492 344.298 127.736C336.711 119.064 328.684 110.538 318.733 104.647C308.837 98.7746 296.686 95.7742 285.581 98.8477C283.62 99.4332 281.659 100.165 279.973 101.116H279.936Z" fill="#FEDF89"/>
<path d="M371.898 249.434C365.025 246.635 358.813 242.482 352.472 238.658C349.338 236.774 345.233 234.981 342.246 237.085C338.745 239.555 339.937 244.97 341.879 248.793C349.943 264.655 364.219 276.327 378.092 287.506C378.862 288.128 379.668 288.768 380.658 288.933C381.574 289.097 382.509 288.805 383.37 288.512C392.02 285.512 413.059 271.882 408.606 260.155C404.684 249.836 380.511 252.928 371.916 249.434H371.898Z" fill="#00093F"/>
<path d="M319.228 191.183L324.084 212.222L328.098 190.542C328.666 187.505 326.65 184.578 323.608 184.011L301.891 180.004L319.228 191.183Z" fill="#00093F"/>
<path d="M382.436 189.17L382.619 207.429L375.032 190.396C373.969 187.999 375.032 185.2 377.433 184.139L394.494 176.547L382.454 189.17H382.436Z" fill="#00093F"/>
<path d="M309.02 165.021C308.342 165.935 312.154 169.905 317.542 173.875C322.93 177.845 327.841 180.315 328.519 179.401C329.197 178.486 325.386 174.516 319.998 170.546C314.61 166.576 309.698 164.106 309.02 165.021Z" fill="#00093F"/>
<path d="M396.327 160.52C397.188 161.234 394.458 165.899 390.224 170.912C385.991 175.925 381.868 179.419 381.025 178.705C380.163 177.992 382.894 173.327 387.127 168.314C391.361 163.301 395.484 159.807 396.327 160.539V160.52Z" fill="#00093F"/>
<path d="M392.735 316.814C391.397 311.783 389.821 306.862 388.263 301.922C386.651 297.019 385.001 292.116 383.26 287.249L382.491 285.091L380.2 286.152C376.131 288.036 372.118 289.994 368.178 292.098C364.201 294.147 360.297 296.306 356.449 298.574L350.694 302.032C348.807 303.239 346.901 304.41 345.05 305.673C341.329 308.161 337.646 310.759 334.127 313.631C338.471 312.259 342.631 310.576 346.754 308.819C348.825 307.941 350.841 306.99 352.875 306.075L358.904 303.148C362.9 301.154 366.858 299.05 370.725 296.836C374.629 294.677 378.459 292.372 382.252 289.994L379.192 288.896C381.281 293.616 383.462 298.3 385.679 302.983C387.952 307.63 390.206 312.295 392.698 316.851L392.735 316.814Z" fill="#00093F"/>
<path d="M318.016 193.814C318.434 187.928 316.286 182.98 313.216 182.763C310.147 182.545 307.32 187.14 306.901 193.026C306.483 198.912 308.632 203.86 311.701 204.077C314.77 204.295 317.597 199.7 318.016 193.814Z" fill="#00093F"/>
<path d="M388.327 196.079C390.327 195.839 391.574 192.53 391.112 188.688C390.651 184.846 388.655 181.925 386.655 182.164C384.655 182.404 383.409 185.713 383.87 189.555C384.332 193.397 386.327 196.318 388.327 196.079Z" fill="#00093F"/>
<path d="M207.712 108.709L219.972 96.1218L186.306 75.6863L207.712 108.709Z" fill="#00093F"/>
<path d="M430.982 155.379L421.489 144.805L449.364 129.419L430.982 155.379Z" fill="#00093F"/>
<defs>
<linearGradient id="paint0_linear_9872_1366" x1="168.291" y1="27.2411" x2="414.032" y2="555.1" gradientUnits="userSpaceOnUse">
<stop stop-color="#DB242D"/>
<stop offset="1" stop-color="#FFE5D6"/>
</linearGradient>
<linearGradient id="paint1_linear_9872_1366" x1="522.559" y1="253.331" x2="96.5619" y2="253.331" gradientUnits="userSpaceOnUse">
<stop stop-color="#F79009"/>
<stop offset="1" stop-color="#FEC84B"/>
</linearGradient>
</defs>
</svg>
