<svg width="587" height="587" viewBox="0 0 587 587" fill="none" xmlns="http://www.w3.org/2000/svg">
<path d="M527.818 470.245C526.298 472.279 524.74 474.294 523.146 476.273C518.382 482.283 513.362 488.073 508.14 493.68C507.315 494.578 506.473 495.476 505.611 496.373C497.861 504.491 489.634 512.15 480.986 519.332C478.128 521.714 475.233 524.023 472.283 526.295C471.055 527.248 469.809 528.182 468.582 529.099C467.464 529.923 466.365 530.748 465.247 531.554C462.682 533.405 460.08 535.219 457.441 536.996C453.649 539.543 449.801 542.035 445.88 544.417C445.752 544.49 445.605 544.582 445.477 544.655C445.367 544.728 445.257 544.783 445.147 544.856C437.397 549.547 429.408 553.89 421.199 557.848C421.035 557.939 420.851 558.013 420.686 558.086C420.247 558.306 419.825 558.507 419.385 558.709C416.454 560.138 413.504 561.457 410.517 562.758C410.151 562.923 409.766 563.088 409.4 563.253C405.57 564.902 401.686 566.459 397.765 567.944C392.25 570.051 386.643 571.993 380.981 573.752C380.725 573.825 380.468 573.899 380.23 573.99C376.346 575.181 372.443 576.299 368.485 577.343C367.588 577.582 366.708 577.801 365.81 578.021C365.517 578.095 365.206 578.168 364.913 578.241C361.45 579.102 357.968 579.909 354.45 580.642C350.035 581.576 345.582 582.419 341.093 583.134C335.212 584.105 329.257 584.893 323.229 585.497C320.627 585.754 318.007 585.992 315.387 586.175C314.983 586.23 314.562 586.248 314.159 586.267C314.012 586.267 313.866 586.303 313.719 586.303C313.573 586.303 313.426 586.303 313.279 586.34H313.206C312.876 586.377 312.528 586.395 312.198 586.413C310.128 586.542 308.058 586.67 306.024 586.725C305.309 586.78 304.613 586.798 303.898 586.817C298.273 587.018 292.685 587.055 287.133 586.945C285.686 586.926 284.238 586.89 282.791 586.835C281.856 586.798 280.922 586.762 279.987 586.707C278.851 586.652 277.734 586.597 276.616 586.542C275.26 586.468 273.923 586.377 272.567 586.285C271.229 586.193 269.873 586.084 268.536 585.955C267.345 585.864 266.136 585.754 264.945 585.644C263.827 585.534 262.691 585.424 261.573 585.296C261.152 585.259 260.712 585.204 260.291 585.149C257.689 584.874 255.105 584.563 252.522 584.178C251.826 584.086 251.129 583.995 250.433 583.885C248.363 583.592 246.311 583.262 244.258 582.914C243.269 582.749 242.298 582.584 241.308 582.401C239.073 581.997 236.838 581.576 234.621 581.1C233.87 580.953 233.118 580.807 232.367 580.642C231.799 580.513 231.231 580.385 230.663 580.257C225.881 579.212 221.135 578.058 216.445 576.775C206.569 574.082 196.895 570.894 187.44 567.229C182.383 565.268 177.399 563.18 172.489 560.944C170.07 559.845 167.688 558.709 165.306 557.554C164.354 557.096 163.401 556.62 162.448 556.162C161.935 555.905 161.44 555.649 160.946 555.392C160.103 554.971 159.26 554.531 158.417 554.091C157.061 553.395 155.705 552.68 154.368 551.948C154.331 551.929 154.313 551.929 154.295 551.893C152.939 551.178 151.583 550.427 150.227 549.675C146.819 547.77 143.448 545.791 140.131 543.757C134.231 540.129 128.46 536.3 122.853 532.287C122.157 531.792 121.461 531.297 120.764 530.784C116.349 527.559 112.024 524.225 107.792 520.762C107.059 520.157 106.326 519.552 105.593 518.911C104.952 518.398 104.311 517.848 103.669 517.317C95.5524 510.446 87.8203 503.116 80.4913 495.384C79.6485 494.523 78.8423 493.662 78.0361 492.782C77.7979 492.526 77.5597 492.269 77.3215 491.994C73.4188 487.762 69.6443 483.401 65.9981 478.93C62.5169 474.679 59.1822 470.336 55.9574 465.902C52.6593 461.376 49.4895 456.741 46.448 452.013C20.5032 411.721 4.12284 364.484 0.678197 313.289C-2.12516 271.842 3.82968 231.824 16.9486 195.05C21.8774 181.216 27.8322 167.84 34.7215 155.014C80.8944 68.8948 169.044 7.75046 273.721 0.677726C375.869 -6.21177 469.351 40.0175 527.086 115.784C530.787 120.621 534.323 125.568 537.713 130.644C565.27 171.889 582.731 220.684 586.322 273.729C591.269 347.04 568.861 415.88 527.818 470.245Z" fill="url(#paint0_linear_9872_1397)"/>
<path d="M257.011 504.051L247.245 512.92L187.422 567.229C182.364 565.269 177.381 563.18 172.47 560.944C170.052 559.845 167.67 558.709 165.288 557.555C164.335 557.097 163.382 556.62 162.43 556.162C161.917 555.906 161.422 555.649 160.927 555.393C160.084 554.971 159.241 554.531 158.399 554.092C157.043 553.395 155.687 552.681 154.349 551.948C154.313 551.929 154.294 551.93 154.276 551.893C152.92 551.178 151.564 550.427 150.208 549.676C146.8 547.77 143.429 545.791 140.113 543.757C134.213 540.129 128.441 536.3 122.834 532.287C122.138 531.792 121.442 531.298 120.746 530.785C116.33 527.56 112.006 524.225 107.773 520.762C107.04 520.157 106.308 519.553 105.575 518.911L164.262 434.716C166.772 431.125 169.667 427.864 172.91 424.987C178.462 420.04 185.003 416.228 192.149 413.846L202.208 410.493C211.754 407.305 221.428 406.847 230.48 408.643C239.568 410.438 248.014 414.506 255.068 420.333C255.985 421.084 256.882 421.872 257.744 422.696C261.793 426.489 265.292 430.905 268.059 435.816C268.426 436.439 268.755 437.062 269.067 437.703C272.402 444.153 274.509 451.427 275.04 459.251C276.194 476.163 269.562 492.654 257.011 504.051Z" fill="url(#paint1_linear_9872_1397)"/>
<path d="M459.933 429.274L419.385 558.709C416.454 560.138 413.504 561.457 410.517 562.758C410.151 562.923 409.766 563.088 409.399 563.253C405.57 564.902 401.686 566.46 397.765 567.944C392.249 570.051 386.643 571.993 380.981 573.752C380.725 573.826 380.468 573.899 380.23 573.991C376.345 575.182 372.443 576.299 368.485 577.344C367.587 577.582 366.708 577.802 365.81 578.022C365.517 578.095 365.205 578.168 364.912 578.241C361.449 579.103 357.968 579.909 354.45 580.642C350.034 581.576 345.582 582.419 341.093 583.134C335.211 584.105 329.257 584.893 323.228 585.497C320.627 585.754 318.006 585.992 315.386 586.175C314.983 586.23 314.562 586.249 314.159 586.267C314.012 586.267 313.866 586.304 313.719 586.304C313.572 586.304 313.426 586.304 313.279 586.34H313.206C312.876 586.377 312.528 586.395 312.198 586.414C310.128 586.542 308.057 586.67 306.023 586.725C305.309 586.78 304.613 586.798 303.898 586.817C298.273 587.018 292.685 587.055 287.133 586.945C285.685 586.927 284.238 586.89 282.79 586.835C281.856 586.798 280.922 586.762 279.987 586.707C278.851 586.652 277.733 586.597 276.616 586.542C275.26 586.469 273.922 586.377 272.566 586.285C271.229 586.194 269.873 586.084 268.535 585.956C267.345 585.864 266.135 585.754 264.944 585.644C263.827 585.534 262.691 585.424 261.573 585.296C261.151 585.259 260.712 585.204 260.29 585.149C257.689 584.874 255.105 584.563 252.522 584.178C251.825 584.087 251.129 583.995 250.433 583.885C248.362 583.592 246.31 583.262 244.258 582.914C243.269 582.749 242.298 582.584 241.308 582.401C239.073 581.998 236.837 581.576 234.62 581.1C233.869 580.953 233.118 580.807 232.367 580.642C231.799 580.514 231.231 580.385 230.663 580.257C225.881 579.213 221.135 578.058 216.444 576.776C206.569 574.082 196.894 570.894 187.44 567.229C182.383 565.269 177.399 563.18 172.489 560.944C170.07 559.845 167.688 558.709 165.306 557.555C164.353 557.097 163.401 556.62 162.448 556.162C161.953 511.252 158.032 464.858 172.928 424.987C180.276 405.363 210.948 395.578 237.699 386.783H237.717C241.18 385.629 244.588 384.511 247.868 383.375L256.864 381.268L270.13 378.153L292.648 372.857L314.434 373.462L368.522 374.928H368.778L429.371 376.559L431.918 380.938L459.896 429.183C459.896 429.183 459.951 429.238 459.951 429.274H459.933Z" fill="url(#paint2_linear_9872_1397)"/>
<path d="M315.844 369.926C315.35 371.099 314.928 372.29 314.415 373.462C311.978 379.454 309.596 385.464 307.269 391.492C307.159 391.785 307.05 392.078 306.94 392.39C302.506 403.879 298.291 415.422 294.26 427.039C276.451 478.38 262.507 530.913 252.522 584.178C251.825 584.087 251.129 583.995 250.433 583.885C248.362 583.592 246.31 583.262 244.258 582.914C243.269 582.749 242.298 582.584 241.308 582.401C239.073 581.998 236.837 581.576 234.62 581.1C233.869 580.953 233.118 580.807 232.367 580.642C236.599 557.94 241.565 535.347 247.245 512.92C253.621 487.615 260.895 462.531 269.067 437.703C269.342 436.879 269.617 436.036 269.891 435.211C273.867 423.173 278.063 411.208 282.479 399.298C282.626 398.895 282.772 398.492 282.937 398.088C286.052 389.642 289.295 381.231 292.63 372.858C294.077 369.248 295.525 365.638 297.027 362.047C303.33 364.704 309.633 367.287 315.844 369.926Z" fill="#94F3DA"/>
<path d="M468.6 488.586L445.88 544.417C445.751 544.49 445.605 544.582 445.477 544.655C445.367 544.729 445.257 544.783 445.147 544.857C437.396 549.547 429.408 553.89 421.199 557.848C421.034 557.94 420.851 558.013 420.686 558.086C420.246 558.306 419.825 558.508 419.385 558.709C416.454 560.138 413.504 561.458 410.517 562.758C410.151 562.923 409.766 563.088 409.399 563.253C405.57 564.902 401.686 566.46 397.765 567.944C392.249 570.051 386.643 571.993 380.981 573.752C380.725 573.826 380.468 573.899 380.23 573.991C376.345 575.182 372.443 576.299 368.485 577.344C367.587 577.582 366.708 577.802 365.81 578.022C365.517 578.095 365.205 578.168 364.912 578.242C361.449 579.103 357.968 579.909 354.45 580.642C350.034 581.576 345.582 582.419 341.093 583.134C335.211 584.105 329.256 584.893 323.228 585.498L329.605 573.404L347.341 464.675C349.375 452.123 355.421 440.561 364.546 431.711L372.681 423.832C398.131 399.17 438.587 402.596 459.878 429.183C461.857 431.638 463.671 434.295 465.283 437.153C474.188 452.893 475.416 471.839 468.6 488.586Z" fill="url(#paint3_linear_9872_1397)"/>
<path d="M278.833 262.094L299.226 273.289L252.851 440.305L216.023 452.435L278.833 262.094Z" fill="#94F3DA"/>
<path d="M437.928 378.922L426.623 358.584L259.814 405.693L247.849 442.577L437.928 378.922Z" fill="#94F3DA"/>
<path d="M256.296 383.43L249.388 407.159L419.019 361.259C444.927 188.637 383.161 150.14 268.884 136.324C209.757 129.178 143.795 196.479 150.007 212.548C156.236 228.618 160.103 236.387 154.019 238.531C147.918 240.674 112.354 262.882 103.724 275.635C95.0758 288.37 129.797 380.608 185.699 362.652C185.699 362.652 211.699 379.765 242.371 371.245C248.436 369.559 247.226 368.423 256.571 369.504C253.566 373.554 258.458 379.436 256.296 383.412V383.43Z" fill="url(#paint4_linear_9872_1397)"/>
<path d="M245.467 135.041C225.936 134.583 208.511 144.826 193.816 154.299C186.139 168.976 177.454 182.682 168.916 197.542C162.539 208.609 153.745 207.968 161.458 229.882C165.27 240.711 169.594 250.459 179.25 254.105C212.981 266.803 257.853 263.322 284.879 287.765C305.236 306.18 329.861 333.994 360.35 331.832C409.564 328.332 410.169 253.959 408.648 216.598C406.834 172.256 354.139 137.552 245.467 135.041Z" fill="#FEDF89"/>
<g style="mix-blend-mode:multiply" opacity="0.55">
<path d="M321.323 167.95C304.906 161.885 286.821 154.904 269.012 155.508C256.516 155.948 244.258 155.014 232.202 152.998C230.26 155.618 227.64 157.909 224.103 159.539C187.44 176.287 215.748 207.326 228.134 230.487C232.147 237.981 234.877 247.545 238.083 256.909C254.812 265.172 270.698 274.939 284.879 287.783C287.829 290.44 290.871 293.317 293.986 296.248C295.799 293.83 297.65 291.411 299.611 289.102C310.787 275.305 324.603 260.995 331.858 244.614C342.852 219.804 357.565 181.326 321.304 167.968L321.323 167.95Z" fill="#B98068"/>
</g>
<path d="M193.816 357.997C181.448 351.09 170.51 341.635 158.673 333.902C135.715 318.877 118.547 298.85 103.248 276.624C96.6149 292.364 131.006 380.223 185.699 362.67C185.699 362.67 203.875 374.561 227.731 373.535C216.481 367.947 204.058 363.751 193.816 358.016V357.997Z" fill="#FEDF89"/>
<path d="M117.668 326.06C126.591 317.595 135.111 303.871 137.144 288.901C138.94 275.69 132.894 264.604 125.436 256.231C116.202 262.882 107.462 270.138 103.724 275.653C99.6931 281.59 105.098 304.805 117.668 326.079V326.06Z" fill="#161915"/>
<path d="M173.258 369.889C173.258 369.889 218.515 341.561 236.489 347.645C254.464 353.728 236.581 361.314 219.614 361.717C202.629 362.12 190.72 375.734 180.606 373.719C170.491 371.721 173.258 369.889 173.258 369.889Z" fill="#161915"/>
<path d="M169.209 219.639C169.209 219.639 164.647 234.664 173.936 240.381C183.226 246.098 194.054 229.442 194.054 229.442C194.054 229.442 176.941 219.749 169.209 219.621V219.639Z" fill="#161915"/>
<path d="M203.271 160.584C203.271 160.584 227.493 152.064 259.356 151.331C291.201 150.598 331.492 155.966 337.355 170.662C343.218 185.357 300.289 297.476 282.113 293.408C263.918 289.341 236.16 234.188 227.42 209.342C218.68 184.496 194.219 166.576 203.289 160.584H203.271Z" fill="url(#paint5_linear_9872_1397)"/>
<path d="M333.892 187.354C329.696 186.016 325.427 184.899 321.14 183.909C319.436 187.061 317.603 190.121 315.588 193.089C311.062 198.953 305.767 205.274 299.592 209.507C288.324 217.221 271.449 224.77 257.982 217.111C243.324 208.774 237.094 196.955 227.548 183.689C221.355 175.096 211.021 169.746 201.347 164.194C201.402 172.256 219.981 188.307 227.383 209.342C236.123 234.188 263.9 289.341 282.076 293.408C296.862 296.725 328.029 223.139 335.999 187.666C335.285 187.556 334.588 187.574 333.892 187.354Z" fill="#F79009"/>
<defs>
<linearGradient id="paint0_linear_9872_1397" x1="169.429" y1="27.4478" x2="417.584" y2="559.582" gradientUnits="userSpaceOnUse">
<stop offset="0.05" stop-color="#344054"/>
<stop offset="1" stop-color="#667085"/>
</linearGradient>
<linearGradient id="paint1_linear_9872_1397" x1="105.575" y1="487.414" x2="275.168" y2="487.414" gradientUnits="userSpaceOnUse">
<stop stop-color="#0691AE"/>
<stop offset="0.36" stop-color="#047B9C"/>
<stop offset="1" stop-color="#024C74"/>
</linearGradient>
<linearGradient id="paint2_linear_9872_1397" x1="161.605" y1="479.938" x2="459.933" y2="479.938" gradientUnits="userSpaceOnUse">
<stop stop-color="#0691AE"/>
<stop offset="0.36" stop-color="#047B9C"/>
<stop offset="1" stop-color="#024C74"/>
</linearGradient>
<linearGradient id="paint3_linear_9872_1397" x1="323.228" y1="496.319" x2="472.96" y2="496.319" gradientUnits="userSpaceOnUse">
<stop stop-color="#0691AE"/>
<stop offset="0.36" stop-color="#047B9C"/>
<stop offset="1" stop-color="#024C74"/>
</linearGradient>
<linearGradient id="paint4_linear_9872_1397" x1="108.418" y1="245.2" x2="429.446" y2="300.938" gradientUnits="userSpaceOnUse">
<stop stop-color="#FEDF89"/>
<stop offset="1" stop-color="#F79009"/>
</linearGradient>
<linearGradient id="paint5_linear_9872_1397" x1="193.791" y1="206.668" x2="328.751" y2="230.1" gradientUnits="userSpaceOnUse">
<stop stop-color="#FEDF89"/>
<stop offset="1" stop-color="#F79009"/>
</linearGradient>
</defs>
</svg>
