<svg width="587" height="587" viewBox="0 0 587 587" fill="none" xmlns="http://www.w3.org/2000/svg">
<path d="M527.818 470.23C520.929 479.373 513.508 488.095 505.611 496.358C495.296 507.15 484.156 517.154 472.283 526.279C471.055 527.232 469.809 528.166 468.582 529.082C467.464 529.907 466.365 530.731 465.247 531.537C462.682 533.388 460.08 535.202 457.441 536.979C442.399 547.148 426.33 555.961 409.4 563.235C400.165 567.193 390.674 570.711 380.981 573.734C380.725 573.807 380.468 573.881 380.23 573.972C376.346 575.163 372.443 576.281 368.485 577.325C367.294 577.637 366.103 577.93 364.913 578.223C348.257 582.382 331.016 585.131 313.279 586.322C310.146 586.542 307.013 586.707 303.898 586.798C296.808 587.055 289.772 587.055 282.791 586.816C275.645 586.56 268.572 586.047 261.573 585.277C257.835 584.893 254.134 584.416 250.433 583.867C220.421 579.451 191.783 570.454 165.288 557.537C162.98 556.419 160.671 555.265 158.399 554.074C155.65 552.645 152.92 551.179 150.209 549.658C140.754 544.363 131.611 538.555 122.835 532.27C122.139 531.776 121.442 531.281 120.746 530.768C114.883 526.499 109.184 522.01 103.651 517.301C95.5341 510.43 87.802 503.101 80.473 495.369C79.6301 494.507 78.824 493.646 78.0178 492.767C70.1391 484.265 62.7551 475.287 55.9391 465.888C24.5159 422.72 4.52595 370.482 0.678212 313.279C-2.12514 271.833 3.82969 231.817 16.9487 195.043C21.8774 181.21 27.8323 167.834 34.7215 155.009C80.8944 68.8926 169.044 7.75022 273.721 0.677705C375.869 -6.21158 469.351 40.0162 527.086 115.78C530.787 120.617 534.323 125.564 537.713 130.64C565.27 171.884 582.731 220.677 586.322 273.721C591.269 347.029 568.861 415.867 527.818 470.23Z" fill="url(#paint0_linear_9872_1422)"/>
<path d="M468.581 529.082C467.464 529.907 466.364 530.731 465.247 531.538C462.681 533.388 460.08 535.202 457.441 536.979C442.398 547.148 426.329 555.961 409.399 563.236C400.165 567.193 390.674 570.711 380.981 573.734C380.725 573.808 380.468 573.881 380.23 573.973C376.345 575.164 372.443 576.281 368.485 577.326C368.705 578.498 368.907 579.653 369.108 580.825L364.912 578.223L295.891 535.532L279.914 525.656C276.909 523.787 274.087 521.662 271.522 519.316C261.5 510.173 255.013 497.659 253.419 483.954C252.283 474.115 253.713 464.697 257.121 456.268C260.565 447.748 266.025 440.255 272.915 434.373C284.678 424.314 300.6 418.982 317.585 421.364L328.322 422.866C328.469 422.885 328.634 422.903 328.78 422.94C340.69 424.699 351.702 430.195 360.258 438.642L435.399 512.812L468.581 529.082Z" fill="url(#paint1_linear_9872_1422)"/>
<path d="M369.108 580.825L364.912 578.223C348.257 582.383 331.015 585.131 313.279 586.322C310.146 586.542 307.013 586.707 303.898 586.798C296.807 587.055 289.771 587.055 282.79 586.817C275.645 586.56 268.572 586.047 261.573 585.278C257.835 584.893 254.134 584.416 250.433 583.867C220.42 579.451 191.782 570.455 165.288 557.537C162.979 556.42 160.671 555.265 158.399 554.074C155.65 552.645 152.92 551.179 150.208 549.659C140.754 544.363 131.611 538.555 122.834 532.27C122.138 531.776 121.442 531.281 120.746 530.768C114.882 526.499 109.184 522.01 103.651 517.301L83.6425 428.84L92.8771 421.529C92.8771 421.529 92.9137 421.529 92.9137 421.511L124.557 396.519L241.949 403.133L264.211 404.397L323.448 407.769C325.262 412.807 327.039 417.864 328.78 422.94C346.058 473.382 359.324 524.996 368.485 577.326C368.705 578.498 368.907 579.653 369.108 580.825Z" fill="url(#paint2_linear_9872_1422)"/>
<path d="M282.79 586.817C279.731 564.207 275.974 541.707 271.522 519.316C267.345 498.191 262.526 477.156 257.121 456.269C252.503 438.459 247.446 420.741 241.949 403.133C241.546 401.905 241.198 400.66 240.795 399.414C247.355 397.252 254.006 395.163 260.639 393.001C261.884 396.794 263.039 400.586 264.211 404.397C267.253 414.365 270.148 424.351 272.915 434.373C282.113 467.775 289.771 501.525 295.891 535.532C298.951 552.572 301.626 569.649 303.898 586.799C296.807 587.055 289.771 587.055 282.79 586.817Z" fill="#94F3DA"/>
<path d="M261.573 585.278C257.835 584.893 254.134 584.417 250.433 583.867C220.42 579.451 191.782 570.455 165.288 557.537C162.979 556.42 160.671 555.265 158.399 554.074C155.65 552.645 152.92 551.179 150.208 549.659C140.754 544.363 131.611 538.555 122.834 532.27C122.138 531.776 121.442 531.281 120.746 530.768C114.882 526.499 109.184 522.01 103.651 517.301C95.5339 510.43 87.8017 503.101 80.4727 495.369C79.6299 494.508 78.8237 493.647 78.0175 492.767C70.1388 484.265 62.7548 475.287 55.9388 465.888C55.9754 465.778 55.9938 465.668 56.0121 465.558C60.3362 444.505 74.8294 428.73 92.8771 421.529C92.8954 421.529 92.9137 421.529 92.9137 421.511C108.066 415.482 125.711 415.482 141.908 423.434L152.297 428.546C163.969 434.263 173.478 443.608 179.433 455.187L230.919 555.394L261.573 585.278Z" fill="url(#paint3_linear_9872_1422)"/>
<path d="M287.701 292.666L265.952 302.359L299.024 476.515L335.523 491.997L287.701 292.666Z" fill="#94F3DA"/>
<path d="M115.634 398.204L128.863 378.434L294.865 440.639L303.916 479.245L115.634 398.204Z" fill="#94F3DA"/>
<path d="M356.924 355.421C356.924 355.421 307.746 372.113 316.815 448.94L135.056 380.761C149.64 341.972 161.752 310.622 177.729 283.01C190.463 251.092 222.418 190.536 282.058 189.73C330.814 189.071 386.514 209.793 387.339 227.31C388.164 244.844 380.083 252.888 395.218 258.147C410.352 263.405 492.639 282.497 480.143 307.068C467.665 331.638 429.004 349.741 356.905 355.403L356.924 355.421Z" fill="white"/>
<path d="M284.531 219.853C286.62 197.316 293.271 174.174 295.286 155.174C297.045 138.592 294.48 109.679 301.406 110.87C301.406 110.87 324.199 118.291 347.726 216.078C347.726 216.078 334.075 283.633 285.777 275.003C285.777 275.003 281.801 249.48 284.531 219.834V219.853Z" fill="url(#paint4_linear_9872_1422)"/>
<path d="M388.512 269.965C391.663 274.948 389.135 281.435 383.601 283.45C354.523 294.022 347.597 330.997 359.342 355.183C358.518 355.256 335.321 361.779 325.555 369.328C323.925 370.592 322.221 371.765 320.48 372.846C303.11 383.528 281.196 383.528 262.544 375.301C220.311 356.685 176.043 328.817 171.059 302.231C171.059 302.231 201.035 190.793 282.076 189.712C324.804 189.144 372.846 204.975 384.627 220.695C378.801 232.312 377.427 246.09 382.593 258.678C384.426 263.13 386.386 266.593 388.512 269.946V269.965Z" fill="url(#paint5_linear_9872_1422)"/>
<path d="M344.794 258.825C344.794 258.825 361.797 232.916 370.867 244.313C374.403 248.765 375.173 260.474 370.867 262.947C356.814 271.009 344.794 258.843 344.794 258.843V258.825Z" fill="#00093F"/>
<path d="M444.139 292.245C443.956 288.599 447.18 281.123 450.369 279.346C457.863 275.15 472.484 273.812 480.271 283.981C491.118 298.09 478.769 315.002 475.361 315.295C472.227 315.57 445.202 314.36 444.139 292.245Z" fill="#00093F"/>
<path d="M269.14 276.964C269.14 276.964 241.491 250.616 242.701 222.326C243.653 199.899 246.182 182.071 247.465 161.807C248.637 143.557 243.214 110.1 252.54 111.987C252.54 111.987 282.644 122.01 312.949 224.085C312.949 224.085 323.998 282.406 269.122 276.982L269.14 276.964Z" fill="url(#paint6_linear_9872_1422)"/>
<path d="M306.005 224.012C296.697 236.105 278.301 236.288 273.739 219.156C268.957 201.164 274.435 192.717 273.483 170.785C272.713 152.829 273.941 147.9 268.92 127.397C282.186 142.018 310.384 218.314 306.005 224.012Z" fill="white"/>
<path d="M393.074 331.162C399.469 329.77 407.879 339.847 420.631 343.988C418.945 344.574 417.168 345.142 415.354 345.692C411.433 344.025 402.144 338.62 393.514 343.64C388.512 346.553 381.512 340.452 383.07 337.099C384.243 334.589 387.412 332.408 393.074 331.162Z" fill="#00093F"/>
<defs>
<linearGradient id="paint0_linear_9872_1422" x1="0.000277506" y1="293.491" x2="587" y2="293.491" gradientUnits="userSpaceOnUse">
<stop stop-color="#60B527"/>
<stop offset="1" stop-color="#B4E87B"/>
</linearGradient>
<linearGradient id="paint1_linear_9872_1422" x1="253.035" y1="500.811" x2="468.581" y2="500.811" gradientUnits="userSpaceOnUse">
<stop stop-color="#0691AE"/>
<stop offset="0.36" stop-color="#047B9C"/>
<stop offset="1" stop-color="#024C74"/>
</linearGradient>
<linearGradient id="paint2_linear_9872_1422" x1="83.6425" y1="491.759" x2="369.108" y2="491.759" gradientUnits="userSpaceOnUse">
<stop stop-color="#0691AE"/>
<stop offset="0.36" stop-color="#047B9C"/>
<stop offset="1" stop-color="#024C74"/>
</linearGradient>
<linearGradient id="paint3_linear_9872_1422" x1="55.9388" y1="501.232" x2="261.573" y2="501.232" gradientUnits="userSpaceOnUse">
<stop stop-color="#0691AE"/>
<stop offset="0.36" stop-color="#047B9C"/>
<stop offset="1" stop-color="#024C74"/>
</linearGradient>
<linearGradient id="paint4_linear_9872_1422" x1="283.56" y1="193.321" x2="347.726" y2="193.321" gradientUnits="userSpaceOnUse">
<stop stop-color="#FF7765"/>
<stop offset="0.07" stop-color="#FC7060"/>
<stop offset="0.7" stop-color="#E4393B"/>
<stop offset="1" stop-color="#DB242D"/>
</linearGradient>
<linearGradient id="paint5_linear_9872_1422" x1="171.059" y1="285.447" x2="389.886" y2="285.447" gradientUnits="userSpaceOnUse">
<stop stop-color="#FF7765"/>
<stop offset="0.07" stop-color="#FC7060"/>
<stop offset="0.7" stop-color="#E4393B"/>
<stop offset="1" stop-color="#DB242D"/>
</linearGradient>
<linearGradient id="paint6_linear_9872_1422" x1="242.664" y1="194.604" x2="313.884" y2="194.604" gradientUnits="userSpaceOnUse">
<stop stop-color="#FF7765"/>
<stop offset="0.07" stop-color="#FC7060"/>
<stop offset="0.7" stop-color="#E4393B"/>
<stop offset="1" stop-color="#DB242D"/>
</linearGradient>
</defs>
</svg>
