<svg width="587" height="587" viewBox="0 0 587 587" fill="none" xmlns="http://www.w3.org/2000/svg">
<path d="M508.38 493.419C489.803 513.372 468.473 530.774 444.922 544.982C436.57 550.012 427.961 554.656 419.076 558.841C386.769 574.169 351.084 583.769 313.27 586.339C310.388 586.523 307.525 586.688 304.661 586.78C282.156 587.661 260.11 585.954 238.817 581.915C215.009 577.4 192.155 570.002 170.66 560.089C129.78 541.201 93.8198 513.152 65.5693 478.385C28.6547 432.99 4.91988 376.104 0.679563 313.27C-1.24786 284.799 0.954909 256.989 6.77388 230.446C34.0147 106.265 140.463 9.67362 273.731 0.678994C435.432 -10.243 575.381 111.992 586.321 273.712C591.993 357.894 561.613 436.147 508.38 493.401V493.419Z" fill="url(#paint0_linear_9872_1442)"/>
<path d="M444.922 544.982C436.57 550.012 427.96 554.656 419.076 558.841C409.274 530.884 402.537 507.737 397.287 504.947C388.806 500.376 381.666 494.337 376.416 487.013C370.321 478.495 366.797 468.234 366.87 456.504C366.87 456.504 366.154 455.99 364.961 455.109C360.776 452.062 350.68 444.444 344.421 438.203C340.914 434.66 338.602 431.558 339.354 429.979C340.088 428.438 345.302 428.768 354.003 430.732C361.804 432.494 372.414 435.633 385.08 439.947C385.612 440.131 386.163 440.314 386.714 440.516C391.266 442.076 396.057 443.802 401.105 445.656C431.081 456.798 469.06 473.099 508.361 493.437C489.785 513.391 468.455 530.793 444.903 545L444.922 544.982Z" fill="url(#paint1_linear_9872_1442)"/>
<path d="M65.5506 478.404C70.1213 458.615 75.7935 434.752 89.4506 424.289C94.6271 420.306 101.235 417.828 108.468 416.377C119.702 414.101 132.478 414.413 143.804 415.643C149.384 416.249 154.616 417.093 159.131 417.956C160.912 418.305 162.711 418.672 164.491 419.057C178.534 422.141 192.32 426.4 206.271 429.833C213.833 431.687 221.415 433.284 229.124 434.348C273.877 440.479 320.172 439.158 361.767 420.049C363.897 419.076 365.934 418.066 367.825 417.075C373.277 414.23 377.37 411.715 378.288 411.329C378.894 411.072 379.536 411.072 380.197 411.293C384.511 412.688 389.816 423.151 393.304 430.438C394.607 433.1 395.635 435.34 396.296 436.533C397.948 439.543 399.563 442.59 401.16 445.637C408.301 459.331 414.891 473.411 421.205 487.6C429.355 505.938 437.928 525.194 444.958 545.001C436.606 550.03 427.997 554.674 419.113 558.86C386.805 574.187 351.121 583.788 313.307 586.357C310.425 586.541 307.561 586.706 304.697 586.798C282.192 587.679 260.146 585.972 238.853 581.934C215.045 577.418 192.191 570.02 170.696 560.108C129.816 541.219 93.8561 513.171 65.6057 478.404H65.5506Z" fill="url(#paint2_linear_9872_1442)"/>
<path d="M377.903 403.95C383.722 422.508 389.614 441.948 386.291 461.112C382.363 483.819 366.338 502.193 352.351 520.513C343.998 531.454 336.179 542.798 328.928 554.491C330.525 551.921 323.182 536.648 322.062 533.565C319.419 526.332 316.537 519.21 313.398 512.179C307.249 498.375 298.823 485.838 292.38 472.273C285.68 458.193 304.349 458.322 313.912 454.632C326.101 449.915 337.629 443.453 348.018 435.523C359.583 426.694 369.771 416.029 377.884 403.95H377.903Z" fill="url(#paint3_linear_9872_1442)"/>
<path d="M255.209 465.114C247.407 482.791 233.053 497.017 225.765 514.896C220.478 527.874 218.845 542.853 209.593 553.389C196.817 534.042 185.418 513.776 175.56 492.795C167.41 475.448 160.159 457.018 160.38 437.836C160.453 431.521 161.389 425.115 164.253 419.498C167.612 412.908 176.019 401.399 183.766 407.364C191.567 413.367 197.9 422.233 205.261 428.915C220.515 442.756 237.293 454.926 255.209 465.095V465.114Z" fill="url(#paint4_linear_9872_1442)"/>
<path d="M304.661 586.78C282.156 587.661 260.11 585.954 238.816 581.915C238.927 581.585 239.037 581.236 239.147 580.924C242.01 571.966 242.947 562.494 245.572 553.463C247.848 545.533 252.308 536.593 258.898 531.105C259.431 530.664 259.963 530.224 260.495 529.838C266.81 525.323 279.072 526.094 284.414 531.802C284.652 532.059 284.909 532.335 285.111 532.61C287.02 535.015 288.122 538.007 289.113 540.926C290.875 546.029 292.619 551.132 294.381 556.216C296.823 563.32 299.246 570.443 301.669 577.528C302.697 580.594 303.761 583.659 304.679 586.761L304.661 586.78Z" fill="url(#paint5_linear_9872_1442)"/>
<path d="M240.891 490.409C238.945 483.984 239.22 476.348 243.718 471.355C246.6 468.161 250.803 466.49 255.007 465.628C260.293 464.545 265.727 464.563 271.105 464.6C281.201 464.655 291.297 464.71 301.393 464.783C304.294 464.783 307.286 464.838 309.911 466.031C314.867 468.289 317.272 474.273 316.868 479.707C316.464 485.14 313.802 490.133 310.957 494.778C307.433 500.56 303.541 506.122 299.649 511.684C293.004 521.192 279.274 549.278 264.203 537.548C257.723 532.5 255.704 523.487 252.932 516.236C249.537 507.352 243.626 499.495 240.872 490.39L240.891 490.409Z" fill="url(#paint6_linear_9872_1442)"/>
<path d="M170.641 560.089C129.761 541.201 93.8011 513.152 65.5506 478.385C28.6543 432.99 4.91952 376.104 0.679197 313.27C-1.24822 284.799 0.954543 256.989 6.77351 230.446C8.24202 233.328 9.71053 236.21 11.179 239.11C28.8012 273.602 46.0561 308.552 65.6057 342.034C80.0154 366.742 94.4803 391.431 108.449 416.377C112.102 422.839 115.7 429.337 119.28 435.835C127.687 451.2 151.238 510.307 170.622 560.071L170.641 560.089Z" fill="url(#paint7_linear_9872_1442)"/>
<path d="M210.18 165.06C199.864 162.38 189.034 161.665 178.608 163.867C175.634 164.491 172.88 165.336 170.806 166.492C162.527 171.1 156.084 179.342 154.652 188.703C154.487 189.768 154.432 191.53 154.469 193.733C154.726 214.237 160.582 234.246 170.696 252.088C173.229 256.567 175.689 261.101 177.892 265.745C186.684 265.91 194.706 261.101 202.085 256.328C217.596 246.306 247.536 232.465 254.603 214.347C259.614 201.498 250.546 188.887 241.46 180.59C233.842 173.67 224.664 169.062 214.935 166.345C213.485 165.942 211.851 165.501 210.199 165.079L210.18 165.06Z" fill="url(#paint8_linear_9872_1442)"/>
<path d="M214.274 191.09C206.087 186.868 196.578 185.601 187.419 186.519C185.216 186.739 182.958 187.106 181.067 188.245C178.442 189.805 176.827 192.65 175.927 195.569C173.486 203.389 175.45 211.961 178.828 219.432C182.205 226.903 186.941 233.677 190.429 241.092C194.945 241.166 199.075 238.706 202.875 236.246C210.86 231.088 226.261 223.966 229.895 214.659C233.713 204.857 221.873 195.018 214.292 191.108L214.274 191.09Z" fill="#FFC4AD"/>
<path d="M393.616 192.999C404.171 194.522 414.413 198.065 423.188 204.123C425.684 205.848 427.905 207.702 429.374 209.575C435.23 217.027 437.965 227.123 435.67 236.32C435.413 237.366 434.771 239.018 433.89 241.019C425.703 259.816 412.541 275.988 396.314 288.525C392.239 291.683 388.219 294.895 384.382 298.328C376.214 295.06 370.689 287.534 365.732 280.265C355.324 265.011 333.095 240.67 333.59 221.231C333.957 207.445 347.192 199.332 358.794 195.202C368.486 191.769 378.747 191.071 388.77 192.338C390.256 192.522 391.927 192.76 393.634 192.999H393.616Z" fill="url(#paint9_linear_9872_1442)"/>
<path d="M379.775 215.394C388.953 214.678 398.223 217.193 406.3 221.58C408.246 222.644 410.173 223.838 411.495 225.618C413.312 228.078 413.697 231.327 413.404 234.374C412.614 242.524 407.493 249.665 401.49 255.245C395.488 260.826 388.494 265.231 382.4 270.72C378.196 269.049 375.351 265.158 372.799 261.431C367.439 253.593 356.003 241.056 356.26 231.052C356.536 220.533 371.258 216.054 379.775 215.394Z" fill="#FFC4AD"/>
<path d="M136.865 357.894C135.782 371.771 134.828 385.924 137.82 399.508C139.582 407.438 142.702 415.184 147.732 421.591C152.78 427.942 159.425 432.843 166.272 437.047C204.875 460.837 251.354 467.114 296.382 472.034C327.698 475.448 370.376 458.707 390.679 433.816C407.199 413.642 409.861 385.722 411.109 359.638C412.743 325.128 412.798 289.186 398.315 257.815C384.988 229.179 359.987 206.564 330.819 194.486C329.24 193.843 327.698 193.274 326.119 192.687C312.224 187.51 297.575 184.628 282.853 184.224C268.021 183.6 253.098 185.473 238.945 189.731C209.006 198.781 182.389 218.753 165.666 245.149C144.777 278.264 140.004 318.868 136.883 357.876L136.865 357.894Z" fill="url(#paint10_linear_9872_1442)"/>
<path d="M228.72 344.2C227.068 352.754 225.912 361.749 227.582 370.12C229.932 381.666 237.55 391.229 247.077 396.571C256.549 401.839 267.728 403.234 278.54 401.858C282.927 401.289 287.424 400.297 291.554 398.352C298.53 395.139 306.148 390.624 311.342 384.419C316.702 378.123 319.75 369.863 322.063 361.694C328.671 338.73 320.521 315.748 318.813 292.894C317.198 270.903 317.749 248.564 320.355 226.499C320.667 223.929 320.98 221.433 321.292 218.918C322.595 210.162 324.174 201.333 326.046 192.687C312.205 187.529 297.575 184.647 282.835 184.243C276.998 214.806 269.82 252.731 256.879 280.283C252.529 289.425 231.786 328.634 228.72 344.2Z" fill="#FFC4AD"/>
<path d="M264.993 336.032C260 336.087 254.915 336.399 250.216 338.088C245.516 339.776 241.184 343.044 239.202 347.633C236.081 354.939 239.789 363.732 245.792 368.963C251.005 373.497 257.54 375.975 263.965 378.27C270.958 380.748 278.356 379.922 285.625 378.839C291.04 378.031 296.455 376.728 301.191 373.993C305.927 371.258 309.929 366.926 311.361 361.657C317.4 339.097 278.998 335.885 264.993 336.05V336.032Z" fill="#00093F"/>
<path d="M246.765 255.943C245.516 253.868 243.295 252.271 240.872 252.253C238.578 252.235 236.485 253.575 234.796 255.135C234.025 255.851 233.328 256.64 232.667 257.466C233.732 258.568 234.723 259.651 235.531 260.66C236.797 262.276 237.825 263.964 238.045 265.415C238.266 266.865 237.531 268.058 235.806 268.205C234.172 268.352 231.933 267.562 229.877 266.626C229.418 266.406 228.959 266.149 228.5 265.91C227.087 271.252 227.454 277.089 229.969 282.009C230.354 282.743 230.795 283.496 231.529 283.9C232.043 284.193 232.649 284.267 233.236 284.303C244.158 284.927 248.802 271.95 248.545 262.9C248.472 260.477 248.05 257.999 246.783 255.943H246.765Z" fill="#00093F"/>
<path d="M355.857 275.291C355.416 273.033 354.517 270.72 352.663 269.361C350.698 267.948 347.963 267.93 345.724 268.847C343.778 269.655 342.218 271.105 340.841 272.721C341.116 273.051 341.447 273.4 341.685 273.712C342.952 275.327 343.98 277.016 344.2 278.466C344.421 279.916 343.686 281.11 341.961 281.256C340.419 281.385 338.381 280.687 336.436 279.825C333.443 286.8 333.003 295.281 339.831 299.723C340.327 300.053 340.859 300.347 341.447 300.402C342.273 300.512 343.081 300.163 343.815 299.796C352.552 295.409 357.711 284.854 355.82 275.272L355.857 275.291Z" fill="#00093F"/>
<path d="M298.768 402.261C297.814 403.381 296.969 404.629 295.886 405.639C294.767 406.612 293.757 407.732 292.472 408.503L290.6 409.751C289.957 410.136 289.26 410.43 288.599 410.779C287.92 411.091 287.277 411.476 286.561 411.733L284.432 412.486C278.723 414.377 272.592 414.67 266.663 414.01C260.734 413.257 254.933 411.55 249.518 409.072C244.103 406.594 239.037 403.4 234.484 399.618C239.385 402.941 244.525 405.859 249.94 408.099C255.355 410.338 261.009 411.99 266.828 412.633C272.61 413.367 278.54 413.073 284.138 411.458C289.719 409.861 294.913 406.74 298.768 402.243V402.261Z" fill="#00093F"/>
<path d="M271.876 379.775L264.13 411.128" stroke="#00093F" stroke-width="0.5" stroke-miterlimit="10"/>
<defs>
<linearGradient id="paint0_linear_9872_1442" x1="169.43" y1="27.4242" x2="417.571" y2="559.557" gradientUnits="userSpaceOnUse">
<stop offset="0.05" stop-color="#344054"/>
<stop offset="1" stop-color="#667085"/>
</linearGradient>
<linearGradient id="paint1_linear_9872_1442" x1="433.779" y1="310.388" x2="410.485" y2="664.39" gradientUnits="userSpaceOnUse">
<stop stop-color="#0CF2F2"/>
<stop offset="0.18" stop-color="#09CFD8"/>
<stop offset="0.44" stop-color="#06A3B7"/>
<stop offset="0.67" stop-color="#04829F"/>
<stop offset="0.87" stop-color="#036F91"/>
<stop offset="1" stop-color="#03688C"/>
</linearGradient>
<linearGradient id="paint2_linear_9872_1442" x1="270.775" y1="275.731" x2="245.773" y2="655.616" gradientUnits="userSpaceOnUse">
<stop stop-color="#0CF2F2"/>
<stop offset="0.18" stop-color="#09CFD8"/>
<stop offset="0.44" stop-color="#06A3B7"/>
<stop offset="0.67" stop-color="#04829F"/>
<stop offset="0.87" stop-color="#036F91"/>
<stop offset="1" stop-color="#03688C"/>
</linearGradient>
<linearGradient id="paint3_linear_9872_1442" x1="351.304" y1="285.992" x2="265.194" y2="1511.35" gradientUnits="userSpaceOnUse">
<stop stop-color="#F9FAFB"/>
<stop offset="0.25" stop-color="#EAEDF0"/>
<stop offset="0.7" stop-color="#D7DBE2"/>
<stop offset="1" stop-color="#D0D5DD"/>
</linearGradient>
<linearGradient id="paint4_linear_9872_1442" x1="220.02" y1="276.759" x2="133.891" y2="1502.14" gradientUnits="userSpaceOnUse">
<stop stop-color="#F9FAFB"/>
<stop offset="0.25" stop-color="#EAEDF0"/>
<stop offset="0.7" stop-color="#D7DBE2"/>
<stop offset="1" stop-color="#D0D5DD"/>
</linearGradient>
<linearGradient id="paint5_linear_9872_1442" x1="278.319" y1="490.574" x2="265.47" y2="673.514" gradientUnits="userSpaceOnUse">
<stop stop-color="#FEDF89"/>
<stop offset="0.16" stop-color="#F6C36A"/>
<stop offset="0.43" stop-color="#EA9C3E"/>
<stop offset="0.67" stop-color="#E27F1D"/>
<stop offset="0.86" stop-color="#DD6E0A"/>
<stop offset="1" stop-color="#DC6803"/>
</linearGradient>
<linearGradient id="paint6_linear_9872_1442" x1="292.307" y1="281.844" x2="206.179" y2="1507.22" gradientUnits="userSpaceOnUse">
<stop stop-color="#FEDF89"/>
<stop offset="0.16" stop-color="#F6C36A"/>
<stop offset="0.43" stop-color="#EA9C3E"/>
<stop offset="0.67" stop-color="#E27F1D"/>
<stop offset="0.86" stop-color="#DD6E0A"/>
<stop offset="1" stop-color="#DC6803"/>
</linearGradient>
<linearGradient id="paint7_linear_9872_1442" x1="98.6288" y1="219.597" x2="58.2631" y2="832.755" gradientUnits="userSpaceOnUse">
<stop stop-color="#0CF2F2"/>
<stop offset="0.18" stop-color="#09CFD8"/>
<stop offset="0.44" stop-color="#06A3B7"/>
<stop offset="0.67" stop-color="#04829F"/>
<stop offset="0.87" stop-color="#036F91"/>
<stop offset="1" stop-color="#03688C"/>
</linearGradient>
<linearGradient id="paint8_linear_9872_1442" x1="209.905" y1="162.986" x2="126.806" y2="806.634" gradientUnits="userSpaceOnUse">
<stop stop-color="#FF7765"/>
<stop offset="0.07" stop-color="#FC7060"/>
<stop offset="0.7" stop-color="#E4393B"/>
<stop offset="1" stop-color="#DB242D"/>
</linearGradient>
<linearGradient id="paint9_linear_9872_1442" x1="390.146" y1="186.244" x2="307.047" y2="829.91" gradientUnits="userSpaceOnUse">
<stop stop-color="#FF7765"/>
<stop offset="0.07" stop-color="#FC7060"/>
<stop offset="0.7" stop-color="#E4393B"/>
<stop offset="1" stop-color="#DB242D"/>
</linearGradient>
<linearGradient id="paint10_linear_9872_1442" x1="297.942" y1="174.349" x2="214.843" y2="817.996" gradientUnits="userSpaceOnUse">
<stop stop-color="#FF7765"/>
<stop offset="0.07" stop-color="#FC7060"/>
<stop offset="0.7" stop-color="#E4393B"/>
<stop offset="1" stop-color="#DB242D"/>
</linearGradient>
</defs>
</svg>
