<svg width="583" height="583" viewBox="0 0 583 583" fill="none" xmlns="http://www.w3.org/2000/svg">
<path d="M527.399 462.739C523.842 467.636 520.137 472.422 516.268 477.098C506.732 488.669 496.298 499.489 485.075 509.446C477.226 516.433 468.993 522.998 460.429 529.104C453.589 533.982 446.51 538.585 439.23 542.84C433.839 546.049 428.301 549.056 422.671 551.88C415.446 555.529 408.056 558.885 400.482 561.929C393.385 564.808 386.124 567.394 378.733 569.705C377.505 570.108 376.239 570.493 374.992 570.86C357.993 575.921 340.297 579.497 322.069 581.404C321.739 581.441 321.427 581.478 321.097 581.496C317.796 581.826 314.477 582.119 311.14 582.34C306.427 582.651 301.732 582.871 297.056 582.963C293.957 583.018 290.876 583.018 287.814 582.981C287.007 582.981 286.2 582.981 285.393 582.945C285.063 582.945 284.715 582.945 284.385 582.926C280.332 582.835 276.298 582.651 272.282 582.395C270.521 582.284 268.761 582.156 267.019 582.009C266.523 581.973 266.01 581.936 265.515 581.881C264.14 581.771 262.783 581.643 261.407 581.496C260.619 581.404 259.812 581.331 259.023 581.239C256.694 580.982 254.365 580.689 252.055 580.377C249.671 580.066 247.305 579.699 244.94 579.314C235.257 577.773 225.722 575.738 216.333 573.226C209.804 571.483 203.331 569.521 196.968 567.302C196.821 567.284 196.674 567.229 196.546 567.174C192.548 565.817 188.606 564.35 184.7 562.81C180.042 560.976 175.439 559.014 170.909 556.923C165.885 554.668 160.952 552.247 156.092 549.698C154.882 549.056 153.672 548.414 152.48 547.754C150.976 546.929 149.491 546.104 148.005 545.26C138.561 539.924 129.447 534.056 120.7 527.729C119.802 527.069 118.903 526.409 118.004 525.749C107.735 518.138 97.9794 509.886 88.8105 501.029C85.0695 497.417 81.4386 493.712 77.9177 489.898C33.9617 442.623 5.35448 380.549 0.678305 311.14C-4.52967 234.194 20.63 162.217 65.9064 106.91C69.0605 103.041 72.3247 99.2447 75.6988 95.5404C124.569 41.7002 193.557 5.95957 271.841 0.678244C432.482 -10.1778 571.484 111.238 582.321 271.86C587.126 342.754 566.129 409.431 527.399 462.739Z" fill="url(#paint0_linear_9872_1468)"/>
<path d="M485.075 509.447C477.227 516.433 468.993 522.998 460.429 529.105C453.589 533.983 446.511 538.586 439.231 542.84C433.839 546.049 428.301 549.057 422.671 551.881C415.446 555.53 408.056 558.886 400.482 561.93C393.386 564.809 386.124 567.395 378.734 569.705C377.505 570.109 376.24 570.494 374.993 570.86C357.993 575.922 340.297 579.498 322.069 581.405C321.739 581.441 321.428 581.478 321.097 581.496C317.797 581.827 314.477 582.12 311.14 582.34C306.427 582.652 301.733 582.872 297.056 582.964C293.957 583.019 290.877 583.019 287.814 582.982C287.007 582.982 286.2 582.982 285.393 582.945C285.063 582.945 284.715 582.945 284.385 582.927C280.332 582.835 276.298 582.652 272.282 582.395C270.521 582.285 268.761 582.157 267.019 582.01C266.524 581.973 266.01 581.937 265.515 581.882C264.14 581.772 262.783 581.643 261.407 581.496H244.335C244.518 580.781 244.72 580.048 244.94 579.314C235.258 577.774 225.722 575.738 216.333 573.226C209.804 571.484 203.331 569.522 196.968 567.303C196.821 567.285 196.674 567.23 196.546 567.175C192.548 565.818 188.606 564.351 184.7 562.81C180.042 560.976 175.439 559.014 170.91 556.924C165.885 554.668 160.952 552.247 156.093 549.699C154.882 549.057 153.672 548.415 152.48 547.755C150.976 546.929 149.491 546.104 148.006 545.261C138.562 539.924 129.448 534.056 120.7 527.73C123.213 522.558 125.762 517.442 128.256 512.417C135.976 496.904 144.136 481.555 153.177 466.756C155.653 462.703 163.611 445.374 169.534 444.109C170.103 443.98 170.653 443.999 171.185 444.2C171.368 444.274 171.662 444.402 172.065 444.604C174.467 445.796 180.647 449.096 187.707 451.994C190.183 453.021 192.677 453.974 195.189 454.891C206.247 458.981 217.598 462.171 229.133 464.409C229.133 464.409 229.133 464.427 229.151 464.409C243.546 467.196 258.198 468.535 272.924 468.351C273.419 468.333 273.932 468.333 274.446 468.315C293.847 468.04 313.029 465.197 331.495 459.934C337.638 458.192 343.708 456.175 349.686 453.883C364.723 448.143 379.137 440.734 392.67 431.712C393.477 431.162 394.284 430.63 395.073 430.117C401.894 425.587 407.524 421.993 410.623 420.453C410.623 420.453 410.636 420.447 410.66 420.434C410.66 420.434 410.77 420.361 410.825 420.343C411.283 420.123 411.687 419.939 412.017 419.811C417.683 417.684 425.605 422.25 430.337 424.854C437.635 428.851 444.457 433.803 450.838 439.121C454.671 442.311 460.117 446.162 462.336 450.802C471.414 469.69 478.584 489.513 485.075 509.447Z" fill="url(#paint1_linear_9872_1468)"/>
<path d="M157.963 480.106C167.572 499.709 163.886 520.119 151.691 536.972C150.811 538.201 149.546 541.061 148.006 545.261C138.562 539.924 129.448 534.056 120.7 527.73C119.802 527.069 118.903 526.409 118.005 525.749C107.735 518.139 97.9796 509.887 88.8107 501.029C85.0697 497.417 81.4388 493.713 77.9179 489.898C113.53 465.601 154.24 440.624 168.177 442.953H168.196C169.406 443.155 170.415 443.577 171.185 444.2C171.625 444.567 171.845 445.19 171.882 446.071C172.285 453.919 157.963 480.106 157.963 480.106Z" fill="url(#paint2_linear_9872_1468)"/>
<path d="M516.268 477.098C506.732 488.67 496.298 499.489 485.075 509.447C477.227 516.433 468.993 522.998 460.429 529.105C453.589 533.983 446.511 538.586 439.231 542.84C435.123 529.27 431.877 519.881 430.117 517.332C417.922 499.727 414.236 478.437 423.845 457.935C423.845 457.935 407.212 426.211 410.293 420.874C410.385 420.709 410.495 420.563 410.623 420.452C410.623 420.452 410.636 420.446 410.66 420.434C410.77 420.324 410.88 420.251 411.008 420.159C411.045 420.141 411.063 420.122 411.082 420.104C422.983 412.274 475.888 447.629 516.268 477.098Z" fill="url(#paint3_linear_9872_1468)"/>
<path d="M346.385 442.806C350.493 455.9 354.638 469.598 352.309 483.113C349.54 499.141 338.243 512.087 328.378 524.997C322.491 532.717 316.971 540.713 311.855 548.965C312.974 547.149 307.802 536.385 307.014 534.203C305.143 529.105 303.108 524.08 300.907 519.129C296.561 509.391 290.62 500.553 286.072 490.98C281.341 481.041 294.507 481.151 301.256 478.529C309.856 475.21 317.98 470.643 325.297 465.05C333.457 458.815 340.627 451.297 346.367 442.788L346.385 442.806Z" fill="url(#paint4_linear_9872_1468)"/>
<path d="M259.849 485.956C254.347 498.407 244.225 508.456 239.09 521.073C235.368 530.224 234.212 540.786 227.684 548.213C218.662 534.57 210.648 520.284 203.68 505.486C197.921 493.254 192.824 480.253 192.97 466.738C193.025 462.281 193.685 457.752 195.703 453.791C198.087 449.133 204.01 441.028 209.456 445.227C214.957 449.463 219.432 455.716 224.622 460.429C235.368 470.185 247.214 478.767 259.849 485.956Z" fill="url(#paint5_linear_9872_1468)"/>
<path d="M297.056 582.963C293.957 583.018 290.876 583.018 287.814 582.982C287.007 582.982 286.2 582.982 285.393 582.945C285.063 582.945 284.715 582.945 284.385 582.927C280.332 582.835 276.298 582.651 272.282 582.395C270.521 582.285 268.761 582.156 267.019 582.01C266.524 581.973 266.01 581.936 265.515 581.881C264.14 581.771 262.783 581.643 261.407 581.496H244.335C244.518 580.781 244.72 580.047 244.94 579.314C246.004 575.573 247.196 571.704 248.498 567.614C250.533 561.306 251.193 554.613 253.027 548.249C254.659 542.656 257.795 536.366 262.434 532.479C262.801 532.167 263.186 531.874 263.571 531.599C268.027 528.408 276.665 528.958 280.442 532.992C280.626 533.176 280.791 533.359 280.937 533.561C282.294 535.248 283.046 537.357 283.743 539.429C284.99 543.023 286.219 546.617 287.466 550.212C289.171 555.236 290.876 560.242 292.6 565.249C294.416 570.567 296.231 575.921 296.91 581.496C296.965 581.973 297.02 582.468 297.056 582.963Z" fill="url(#paint6_linear_9872_1468)"/>
<path d="M249.745 503.798C248.369 499.269 248.571 493.878 251.743 490.357C253.779 488.119 256.75 486.928 259.702 486.322C263.425 485.552 267.257 485.571 271.072 485.589L292.435 485.717C294.471 485.717 296.58 485.754 298.432 486.597C301.934 488.193 303.621 492.411 303.346 496.243C303.071 500.076 301.182 503.597 299.184 506.879C296.69 510.969 293.939 514.893 291.207 518.799C286.53 525.492 276.83 545.316 266.212 537.027C261.646 533.469 260.215 527.124 258.253 522.008C255.851 515.736 251.688 510.198 249.745 503.78V503.798Z" fill="url(#paint7_linear_9872_1468)"/>
<path d="M285.173 181.784C285.173 181.784 205.623 175.898 172.248 208.301C138.855 240.704 92.0198 292.747 114.612 365.42C137.205 438.094 219.634 485.479 263.571 490.137C334.613 497.674 401.711 430.227 418.399 412.549C435.086 394.871 492.942 308.83 411.192 231.847C332.632 157.872 327.387 197.482 285.155 181.766L285.173 181.784Z" fill="url(#paint8_linear_9872_1468)"/>
<path d="M233.589 202.231C233.589 202.231 212.5 188.643 183.214 188.881C153.929 189.138 112.467 179.18 101.079 175.843C89.7092 172.505 62.6608 186.35 50.1543 223.375C37.6478 260.399 63.1009 308.169 89.3058 329.405C115.511 350.64 110.468 277.215 147.639 251.175C184.791 225.153 239.347 212.28 233.589 202.231Z" fill="#1D2939"/>
<path d="M348.604 186.24C348.604 186.24 384.748 180.005 410.66 175.916C436.553 171.827 446.474 161.723 458.082 165.977C469.671 170.231 518.249 187.817 501.818 259.831C484.048 337.804 480.363 301.109 459.476 290.785C438.589 280.442 396.595 260.472 378.789 236.12C360.982 211.767 337.785 182.499 348.604 186.259V186.24Z" fill="#1D2939"/>
<path d="M341.819 327.461C341.819 327.461 298.248 283.89 328.946 252.514C333.072 248.296 339.949 248.333 344.203 252.44C356.16 263.975 381.008 287.301 398.777 299.312C423.001 315.688 393.221 372.646 374.057 356.27C354.913 339.894 341.819 327.461 341.819 327.461Z" fill="#93370D"/>
<path d="M382.896 301.109C382.896 314.221 372.26 324.857 359.149 324.857C346.037 324.857 335.401 314.221 335.401 301.109C335.401 287.998 346.037 277.362 359.149 277.362C372.26 277.362 382.896 287.998 382.896 301.109Z" fill="#040701"/>
<path d="M371.6 301.109C371.6 307.986 366.025 313.561 359.149 313.561C352.272 313.561 346.697 307.986 346.697 301.109C346.697 294.232 352.272 288.658 359.149 288.658C366.025 288.658 371.6 294.232 371.6 301.109Z" fill="#040701"/>
<path d="M375.873 288.639C375.873 293.15 372.224 296.781 367.713 296.781C363.201 296.781 359.57 293.132 359.57 288.639C359.57 284.147 363.22 280.497 367.713 280.497C372.205 280.497 375.873 284.147 375.873 288.639Z" fill="#E6E6E6"/>
<path d="M216.81 327.461C216.81 327.461 260.38 283.89 229.683 252.514C225.557 248.296 218.68 248.333 214.426 252.44C202.469 263.975 177.621 287.301 159.852 299.312C135.627 315.688 165.408 372.646 184.571 356.27C203.716 339.894 216.81 327.461 216.81 327.461Z" fill="#93370D"/>
<path d="M223.54 301.109C223.54 314.221 212.904 324.857 199.792 324.857C186.68 324.857 176.044 314.221 176.044 301.109C176.044 287.998 186.68 277.362 199.792 277.362C212.904 277.362 223.54 287.998 223.54 301.109Z" fill="#040701"/>
<path d="M212.243 301.109C212.243 307.986 206.669 313.561 199.792 313.561C192.915 313.561 187.34 307.986 187.34 301.109C187.34 294.232 192.915 288.658 199.792 288.658C206.669 288.658 212.243 294.232 212.243 301.109Z" fill="#040701"/>
<path d="M208.356 296.781C212.852 296.781 216.498 293.136 216.498 288.639C216.498 284.143 212.852 280.497 208.356 280.497C203.859 280.497 200.214 284.143 200.214 288.639C200.214 293.136 203.859 296.781 208.356 296.781Z" fill="#E6E6E6"/>
<path d="M338.207 312.882C318.989 302.265 286.054 288.273 263.241 293.462C227.996 301.494 183.361 338.464 166.344 359.534C151.82 377.523 151.105 412.439 173.99 447.684C204.743 472.477 239.769 487.625 263.571 490.137C307.197 494.758 349.32 471.12 379.21 448.088C399.089 432.776 408.386 406.699 400.629 382.841C393.404 360.561 376.331 333.971 338.188 312.882H338.207Z" fill="#1D2939"/>
<path d="M257.025 351.667C262.625 351.667 267.166 344.926 267.166 336.612C267.166 328.297 262.625 321.556 257.025 321.556C251.424 321.556 246.884 328.297 246.884 336.612C246.884 344.926 251.424 351.667 257.025 351.667Z" fill="#070C02"/>
<path d="M296.8 351.667C302.4 351.667 306.941 344.926 306.941 336.612C306.941 328.297 302.4 321.556 296.8 321.556C291.199 321.556 286.659 328.297 286.659 336.612C286.659 344.926 291.199 351.667 296.8 351.667Z" fill="#070C02"/>
<path d="M175.512 424.359C175.512 424.359 208.246 426.321 235.092 410.605C261.939 394.89 278.297 367.878 275.839 314.863C275.839 314.863 277.123 307.986 281.267 314.863C281.267 314.863 274.372 390.488 309.728 410.605C345.083 430.74 374.057 426.816 374.057 426.816C374.057 426.816 354.161 442.458 301.219 424.707C285.137 419.316 267.844 418.766 251.34 422.727C232.012 427.366 203.881 431.125 175.512 424.359Z" fill="#070C02"/>
<defs>
<linearGradient id="paint0_linear_9872_1468" x1="168.269" y1="27.2499" x2="414.712" y2="555.75" gradientUnits="userSpaceOnUse">
<stop stop-color="#60B527"/>
<stop offset="1" stop-color="#B4E87B"/>
</linearGradient>
<linearGradient id="paint1_linear_9872_1468" x1="302.888" y1="309.563" x2="302.888" y2="608.16" gradientUnits="userSpaceOnUse">
<stop stop-color="#FF7765"/>
<stop offset="0.07" stop-color="#FC7060"/>
<stop offset="0.7" stop-color="#E4393B"/>
<stop offset="1" stop-color="#DB242D"/>
</linearGradient>
<linearGradient id="paint2_linear_9872_1468" x1="124.9" y1="358.085" x2="124.9" y2="576.453" gradientUnits="userSpaceOnUse">
<stop stop-color="#FF7765"/>
<stop offset="0.07" stop-color="#FC7060"/>
<stop offset="0.7" stop-color="#E4393B"/>
<stop offset="1" stop-color="#DB242D"/>
</linearGradient>
<linearGradient id="paint3_linear_9872_1468" x1="463.088" y1="326.195" x2="463.088" y2="578.947" gradientUnits="userSpaceOnUse">
<stop stop-color="#FF7765"/>
<stop offset="0.07" stop-color="#FC7060"/>
<stop offset="0.7" stop-color="#E4393B"/>
<stop offset="1" stop-color="#DB242D"/>
</linearGradient>
<linearGradient id="paint4_linear_9872_1468" x1="319.025" y1="415.795" x2="319.025" y2="713.016" gradientUnits="userSpaceOnUse">
<stop stop-color="#E4E7EC"/>
<stop offset="0.67" stop-color="#ADB5C3"/>
<stop offset="1" stop-color="#98A2B3"/>
</linearGradient>
<linearGradient id="paint5_linear_9872_1468" x1="226.419" y1="415.795" x2="226.419" y2="713.035" gradientUnits="userSpaceOnUse">
<stop stop-color="#E4E7EC"/>
<stop offset="0.67" stop-color="#ADB5C3"/>
<stop offset="1" stop-color="#98A2B3"/>
</linearGradient>
<linearGradient id="paint6_linear_9872_1468" x1="270.686" y1="509.758" x2="270.686" y2="627.249" gradientUnits="userSpaceOnUse">
<stop stop-color="#E4E7EC"/>
<stop offset="0.67" stop-color="#ADB5C3"/>
<stop offset="1" stop-color="#98A2B3"/>
</linearGradient>
<linearGradient id="paint7_linear_9872_1468" x1="276.169" y1="426.687" x2="276.169" y2="1037.67" gradientUnits="userSpaceOnUse">
<stop stop-color="#E4E7EC"/>
<stop offset="0.67" stop-color="#ADB5C3"/>
<stop offset="1" stop-color="#98A2B3"/>
</linearGradient>
<linearGradient id="paint8_linear_9872_1468" x1="281.286" y1="490.724" x2="281.286" y2="181.363" gradientUnits="userSpaceOnUse">
<stop stop-color="#FEDF89"/>
<stop offset="1" stop-color="#F79009"/>
</linearGradient>
</defs>
</svg>
